<svg width="26" height="31" viewBox="0 0 26 31" fill="none" xmlns="http://www.w3.org/2000/svg">
<path d="M14.7209 29.9241C2.24619 29.9241 0.563196 24.3437 1.08065 19.641C1.65898 14.4005 6.30464 10.6997 7.36238 7.70026C8.31358 5.00519 9.30537 1 14.4317 1C14.5801 9.27925 14.7209 29.9241 14.7209 29.9241Z" fill="#6FB56F"/>
<path d="M14.7209 29.9241C14.7209 29.9241 14.6828 24.3374 14.6257 17.8109C12.216 16.3613 8.88682 14.8076 5.81761 14.8939C4.69393 16.9231 1.8771 16.6238 3.05152 14.3447C2.09144 15.9237 1.30004 17.6765 1.0819 19.6461C0.563177 24.3399 2.2487 29.9241 14.7209 29.9241Z" fill="#559958"/>
<path d="M14.9074 29.9243C2.43399 29.9243 0.563291 24.3439 1.08328 19.6412C1.66161 14.4007 6.30728 10.6999 7.36501 7.70042C8.31621 5.00535 9.0683 1.06104 14.1934 1.06104C14.3405 9.34029 14.9074 29.9243 14.9074 29.9243Z" stroke="#232120" stroke-width="0.507307" stroke-miterlimit="10"/>
<path d="M14.5267 29.919C12.6522 29.8197 10.8296 29.2674 9.2152 28.3096C7.5005 27.295 6.17136 25.8999 5.35967 24.2765C3.62975 20.804 4.36915 16.5629 7.49797 12.0124C9.36613 9.29574 10.0091 7.20817 10.5253 5.53152C10.9058 4.28988 11.2102 3.30951 11.9014 2.3228C12.4911 1.48321 13.3409 1.02283 14.235 1.06214C15.3156 1.11034 16.2972 1.84466 16.9301 3.07996C17.2695 3.75978 17.5348 4.47411 17.7215 5.21065C18.1958 6.87842 18.7361 8.76941 21.8066 12.8482C23.4287 15.0042 24.4446 17.1603 24.8289 19.2593C25.1726 21.1388 24.9975 22.889 24.3101 24.4591C23.6431 25.9473 22.5595 27.2106 21.1902 28.0965C19.7266 29.0642 17.9016 29.6819 15.9117 29.8823C15.454 29.9271 14.9937 29.9394 14.5343 29.919H14.5267Z" fill="#E1E53C"/>
<path opacity="0.35" d="M24.8236 19.2567C24.7319 18.7584 24.6082 18.2666 24.4532 17.7842C24.498 19.1305 24.3757 20.4771 24.0893 21.7932C24.072 21.8615 24.0304 21.921 23.9723 21.9608C23.9142 22.0005 23.8437 22.0177 23.7738 22.0092C23.704 22.0006 23.6396 21.9669 23.5929 21.9143C23.5461 21.8617 23.5201 21.7939 23.5198 21.7235C23.5191 21.7112 23.5191 21.699 23.5198 21.6867C23.5274 17.6384 20.4671 14.261 16.6826 14.1405C12.8981 14.02 9.82378 17.2047 9.8149 21.2517C9.8149 24.0634 11.2861 26.5531 13.4574 27.8467C13.5792 27.921 13.6732 28.0334 13.7247 28.1665C13.7763 28.2996 13.7826 28.446 13.7426 28.583C13.7026 28.72 13.6186 28.84 13.5035 28.9245C13.3884 29.009 13.2488 29.0532 13.1061 29.0503C11.8739 29.0348 10.6509 28.8357 9.47754 28.4593C11.0266 29.326 12.754 29.8254 14.5265 29.919C14.9859 29.9394 15.4462 29.9271 15.9039 29.8823C17.8938 29.6819 19.7188 29.0642 21.1824 28.0965C22.5517 27.2106 23.6352 25.9473 24.3023 24.4591C24.991 22.8865 25.166 21.1363 24.8236 19.2567Z" fill="#4AA853"/>
<path d="M14.2354 1.06222C13.9927 1.0692 13.7543 1.12847 13.5366 1.23597L13.2588 1.22456C12.7081 1.44777 12.2365 1.83018 11.9043 2.32288C11.2131 3.30959 10.9113 4.28996 10.5283 5.5316C10.0121 7.20825 9.36906 9.29582 7.5009 12.0124C4.37208 16.563 3.63268 20.8041 5.3626 24.2766C5.63088 24.8125 5.95208 25.3202 6.32141 25.7922C4.79949 22.8523 4.67266 18.6341 7.34617 14.53C9.07989 11.8666 9.90173 10.4436 10.4293 9.05358C10.4756 8.93197 10.5485 8.82228 10.6428 8.73259C10.7371 8.64291 10.8502 8.5755 10.974 8.53535C11.0977 8.49519 11.2289 8.4833 11.3579 8.50055C11.4869 8.51781 11.6103 8.56377 11.7192 8.63505C12.3799 9.07387 13.3299 8.87856 13.898 8.39915C16.082 6.56524 17.3744 0.989929 14.2354 1.06222Z" fill="#E4F757"/>
<path d="M14.5267 29.919C12.6522 29.8197 10.8296 29.2674 9.2152 28.3096C7.5005 27.295 6.17136 25.8999 5.35967 24.2765C3.62975 20.804 4.36915 16.5629 7.49797 12.0124C9.36613 9.29574 10.0091 7.20817 10.5253 5.53152C10.9058 4.28988 11.2102 3.30951 11.9014 2.3228C12.4911 1.48321 13.3409 1.02283 14.235 1.06214C15.3156 1.11034 16.2972 1.84466 16.9301 3.07996C17.2695 3.75978 17.5348 4.47411 17.7215 5.21065C18.1958 6.87842 18.7361 8.76941 21.8066 12.8482C23.4287 15.0042 24.4446 17.1603 24.8289 19.2593C25.1726 21.1388 24.9975 22.889 24.3101 24.4591C23.6431 25.9473 22.5595 27.2106 21.1902 28.0965C19.7266 29.0642 17.9016 29.6819 15.9117 29.8823C15.454 29.9271 14.9937 29.9394 14.5343 29.919H14.5267Z" stroke="#232120" stroke-width="0.507307" stroke-miterlimit="10"/>
<path d="M16.8926 26.7953C20.5659 25.9324 22.7911 22.0295 21.8629 18.078C20.9346 14.1265 17.2043 11.6227 13.531 12.4856C9.85768 13.3486 7.6324 17.2514 8.56067 21.2029C9.48894 25.1544 13.2193 27.6582 16.8926 26.7953Z" fill="#9E6C4B"/>
<path d="M22.0642 19.8591C22.0685 18.6742 21.8049 17.5036 21.2931 16.4348C21.5847 17.1916 21.7248 17.9983 21.7053 18.809C21.6254 22.3488 18.6158 25.1859 14.9835 25.1504C11.3511 25.1149 8.46329 22.2131 8.54319 18.6746C8.62309 15.1361 11.6327 12.2977 15.265 12.3332C15.5049 12.3356 15.7446 12.3508 15.9828 12.3789C15.7308 12.3408 15.4767 12.3175 15.2219 12.3092C11.4386 12.1899 8.36309 15.3733 8.35548 19.4203C8.34787 23.4674 11.4069 26.846 15.1914 26.9653C18.976 27.0845 22.0566 23.9062 22.0642 19.8591Z" fill="#8E5E43"/>
<path d="M16.6201 26.854C20.3236 26.1314 22.6958 22.316 21.9185 18.3321C21.1412 14.3481 17.5088 11.7042 13.8053 12.4268C10.1019 13.1494 7.72973 16.9647 8.50702 20.9487C9.28431 24.9327 12.9167 27.5766 16.6201 26.854Z" stroke="#232120" stroke-width="0.507307" stroke-miterlimit="10"/>
<path d="M16.9813 23.5726C15.3643 24.6709 16.8291 25.929 18.3688 24.8028C19.9085 23.6766 18.4664 22.563 16.9813 23.5726Z" fill="#8E5E43"/>
<path opacity="0.31" d="M10.2771 19.7956C7.50849 19.2769 11.0216 13.2006 13.321 13.595C14.7161 13.8373 13.5442 15.5469 12.8657 16.7454C12.0146 18.2509 12.0768 20.1254 10.2771 19.7956Z" fill="#B57E5E"/>
</svg>
