<svg width="20" height="23" viewBox="0 0 20 23" fill="none" xmlns="http://www.w3.org/2000/svg">
<path d="M11.2907 22.6931C1.93464 22.6931 0.672397 18.5078 1.06049 14.9808C1.49423 11.0504 4.97848 8.27479 5.77179 6.0252C6.48519 4.00389 7.22902 1 11.0738 1C11.1851 7.20944 11.2907 22.6931 11.2907 22.6931Z" fill="#6FB56F"/>
<path d="M11.2909 22.6931C11.2909 22.6931 11.2623 18.5031 11.2195 13.6082C9.41226 12.521 6.91536 11.3557 4.61345 11.4204C3.77069 12.9423 1.65807 12.7179 2.53888 11.0085C1.81882 12.1928 1.22527 13.5074 1.06167 14.9846C0.672627 18.505 1.93677 22.6931 11.2909 22.6931Z" fill="#559958"/>
<path d="M11.4303 22.6931C2.07525 22.6931 0.672224 18.5078 1.06222 14.9807C1.49596 11.0504 4.98021 8.27478 5.77351 6.02519C6.48692 4.00389 7.05098 1.04565 10.8948 1.04565C11.0051 7.25509 11.4303 22.6931 11.4303 22.6931Z" stroke="#232120" stroke-width="0.38048" stroke-miterlimit="10"/>
<path d="M11.1455 22.6893C9.73961 22.6148 8.37271 22.2006 7.16189 21.4822C5.87587 20.7212 4.87901 19.6749 4.27024 18.4574C2.9728 15.853 3.52735 12.6722 5.87397 9.25928C7.27508 7.2218 7.75734 5.65613 8.14448 4.39864C8.42984 3.46741 8.65813 2.73213 9.17654 1.9921C9.61884 1.36241 10.2561 1.01712 10.9267 1.04661C11.7372 1.08275 12.4734 1.6335 12.948 2.55997C13.2026 3.06983 13.4016 3.60558 13.5416 4.15798C13.8973 5.40881 14.3026 6.82705 16.6054 9.88612C17.822 11.5032 18.5839 13.1202 18.8721 14.6944C19.1299 16.1041 18.9986 17.4168 18.4831 18.5944C17.9828 19.7105 17.1701 20.658 16.1431 21.3224C15.0454 22.0482 13.6767 22.5114 12.1842 22.6617C11.841 22.6953 11.4958 22.7046 11.1512 22.6893H11.1455Z" fill="#E1E53C"/>
<path opacity="0.35" d="M18.8679 14.6925C18.7992 14.3188 18.7064 13.95 18.5902 13.5882C18.6237 14.5979 18.5321 15.6078 18.3172 16.5949C18.3042 16.6461 18.273 16.6908 18.2295 16.7206C18.1859 16.7504 18.133 16.7633 18.0806 16.7569C18.0282 16.7505 17.98 16.7252 17.9449 16.6857C17.9098 16.6463 17.8903 16.5954 17.8901 16.5426C17.8896 16.5334 17.8896 16.5242 17.8901 16.515C17.8958 13.4788 15.6006 10.9458 12.7622 10.8554C9.92379 10.765 7.61808 13.1535 7.61142 16.1888C7.61142 18.2976 8.71481 20.1648 10.3433 21.135C10.4347 21.1908 10.5051 21.2751 10.5438 21.3749C10.5825 21.4747 10.5872 21.5845 10.5572 21.6873C10.5272 21.79 10.4642 21.88 10.3779 21.9434C10.2916 22.0067 10.1868 22.0399 10.0798 22.0377C9.15566 22.0261 8.23843 21.8767 7.3584 21.5944C8.52018 22.2445 9.81572 22.619 11.1451 22.6893C11.4897 22.7046 11.8349 22.6953 12.1781 22.6617C13.6706 22.5114 15.0393 22.0482 16.137 21.3224C17.164 20.658 17.9767 19.7105 18.477 18.5944C18.9935 17.4149 19.1248 16.1022 18.8679 14.6925Z" fill="#4AA853"/>
<path d="M10.9268 1.0466C10.7448 1.05184 10.566 1.09629 10.4027 1.17692L10.1944 1.16836C9.78134 1.33577 9.42763 1.62258 9.17849 1.9921C8.66008 2.73213 8.4337 3.46741 8.14643 4.39864C7.7593 5.65612 7.27704 7.2218 5.87592 9.25927C3.52931 12.6722 2.97475 15.853 4.27219 18.4574C4.4734 18.8593 4.7143 19.2401 4.9913 19.5941C3.84986 17.3892 3.75474 14.2255 5.75987 11.1474C7.06016 9.14989 7.67654 8.08264 8.07224 7.04012C8.10693 6.94891 8.16164 6.86665 8.23234 6.79938C8.30303 6.73212 8.38792 6.68157 8.48073 6.65145C8.57355 6.62133 8.67195 6.61241 8.76867 6.62535C8.86539 6.6383 8.95798 6.67277 9.03961 6.72623C9.53519 7.05534 10.2476 6.90886 10.6738 6.5493C12.3117 5.17387 13.281 0.992385 10.9268 1.0466Z" fill="#E4F757"/>
<path d="M11.1455 22.6893C9.73961 22.6148 8.37271 22.2006 7.16189 21.4822C5.87587 20.7212 4.87901 19.6749 4.27024 18.4574C2.9728 15.853 3.52735 12.6722 5.87397 9.25928C7.27508 7.2218 7.75734 5.65613 8.14448 4.39864C8.42984 3.46741 8.65813 2.73213 9.17653 1.9921C9.61884 1.36241 10.2561 1.01712 10.9267 1.04661C11.7372 1.08275 12.4734 1.6335 12.948 2.55997C13.2026 3.06983 13.4016 3.60558 13.5416 4.15798C13.8973 5.40881 14.3026 6.82705 16.6054 9.88612C17.822 11.5032 18.5839 13.1202 18.8721 14.6944C19.1299 16.1041 18.9986 17.4168 18.4831 18.5944C17.9828 19.7105 17.1701 20.658 16.1431 21.3224C15.0454 22.0482 13.6767 22.5114 12.1842 22.6617C11.841 22.6953 11.4958 22.7046 11.1512 22.6893H11.1455Z" stroke="#232120" stroke-width="0.38048" stroke-miterlimit="10"/>
<path d="M12.9197 20.3465C15.6746 19.6993 17.3436 16.7721 16.6474 13.8085C15.9512 10.8449 13.1535 8.96701 10.3985 9.6142C7.64351 10.2614 5.97454 13.1885 6.67075 16.1522C7.36695 19.1158 10.1647 20.9937 12.9197 20.3465Z" fill="#9E6C4B"/>
<path d="M16.7981 15.1444C16.8013 14.2556 16.6036 13.3777 16.2198 12.5761C16.4386 13.1437 16.5436 13.7487 16.529 14.3568C16.469 17.0116 14.2118 19.1394 11.4876 19.1128C8.76335 19.0861 6.59747 16.9098 6.65739 14.2559C6.71732 11.6021 8.97452 9.4733 11.6988 9.49994C11.8787 9.50169 12.0584 9.51312 12.2371 9.53418C12.0481 9.50557 11.8575 9.4881 11.6664 9.48186C8.82898 9.39245 6.52232 11.78 6.51661 14.8152C6.5109 17.8505 8.8052 20.3845 11.6436 20.4739C14.482 20.5634 16.7924 18.1796 16.7981 15.1444Z" fill="#8E5E43"/>
<path d="M12.7156 20.3904C15.4932 19.8485 17.2723 16.987 16.6893 13.999C16.1064 11.011 13.3821 9.02811 10.6045 9.57003C7.82689 10.112 6.04778 12.9735 6.63075 15.9615C7.21372 18.9494 9.938 20.9324 12.7156 20.3904Z" stroke="#232120" stroke-width="0.38048" stroke-miterlimit="10"/>
<path d="M12.9857 17.9295C11.7729 18.7532 12.8716 19.6968 14.0263 18.8521C15.1811 18.0075 14.0996 17.1723 12.9857 17.9295Z" fill="#8E5E43"/>
<path opacity="0.31" d="M7.95735 15.0968C5.88088 14.7078 8.5157 10.1506 10.2402 10.4464C11.2866 10.6281 10.4076 11.9103 9.89875 12.8092C9.26049 13.9382 9.3071 15.3441 7.95735 15.0968Z" fill="#B57E5E"/>
</svg>
