<svg width="109" height="109" viewBox="0 0 109 109" fill="none" xmlns="http://www.w3.org/2000/svg">
<circle cx="54" cy="54" r="50" fill="white"/>
<path d="M65.4732 96.6799C89.0164 90.3716 102.988 66.1721 96.6796 42.629C90.3712 19.0858 66.1718 5.1143 42.6286 11.4227C19.0855 17.731 5.11394 41.9305 11.4223 65.4736C17.7307 89.0167 41.9301 102.988 65.4732 96.6799Z" fill="#41B4E6"/>
<path d="M96.6816 42.6292C96.4033 41.5904 96.0884 40.5717 95.7421 39.5709L73.3405 26.6377L28.8798 59.5038L52.99 73.4239L53.4801 74.255L53.7157 73.8429L53.7174 73.8439L53.4801 74.255L80.1505 89.6532C94.3985 79.2033 101.53 60.7233 96.6816 42.6292Z" fill="#0091C8"/>
<path d="M51.5758 61.3716L74.738 70.7546L73.3397 26.6376L28.8788 59.5038L45.3439 60.4607L67.9828 34.5524L51.5758 61.3716Z" fill="white"/>
<path d="M45.3443 60.4608L53.4798 74.2552L51.5763 61.3717L67.9833 34.5525L45.3443 60.4608Z" fill="#D2D2D7"/>
<path d="M59.1036 64.4211L53.4792 74.2551L51.5758 61.3716L59.1036 64.4211Z" fill="#B9B9BE"/>
</svg>
