<svg width="33" height="33" viewBox="0 0 33 33" fill="none" xmlns="http://www.w3.org/2000/svg">
<path d="M16.5 33C25.6127 33 33 25.6127 33 16.5C33 7.3873 25.6127 0 16.5 0C7.3873 0 0 7.3873 0 16.5C0 25.6127 7.3873 33 16.5 33Z" fill="#039BE5"/>
<path d="M7.55012 16.1424L23.4589 10.0085C24.1972 9.74179 24.8421 10.1887 24.6029 11.3052L24.6042 11.3038L21.8955 24.0652C21.6947 24.9699 21.1571 25.1899 20.405 24.7637L16.28 21.7235L14.2904 23.6403C14.0704 23.8603 13.8847 24.0459 13.4585 24.0459L13.7514 19.848L21.3964 12.9414C21.7291 12.6485 21.3221 12.4835 20.8835 12.775L11.4359 18.7233L7.36312 17.4528C6.47899 17.1723 6.45974 16.5687 7.55012 16.1424Z" fill="white"/>
</svg>
