<svg width="65" height="87" viewBox="0 0 65 87" fill="none" xmlns="http://www.w3.org/2000/svg">
<path fill-rule="evenodd" clip-rule="evenodd" d="M13.1099 38.8625C11.0599 20.3906 21.7958 7.39868 41.9291 0C29.6012 16.0789 52.4396 33.4958 53.7006 50.1907C56.6522 45.1284 58.3288 38.374 58.6599 29.3398C73.7564 53.1431 61.2382 92.0481 28.0161 86.4548C24.9659 85.9451 22.0283 84.9751 19.3514 83.5308C7.23475 77.0312 0 62.864 0 49.334C0 40.7104 3.67021 33.0144 8.41823 26.8972C9.05224 32.887 10.4048 37.3545 13.1099 38.8625Z" fill="#EC6F59"/>
<path fill-rule="evenodd" clip-rule="evenodd" d="M23.8602 65.5474C20.4366 56.6619 20.9086 42.3105 30.4962 37.2766C30.5666 53.7732 46.7339 55.876 43.7399 73.4841C46.5014 70.3406 47.8962 65.3137 48.1428 61.3418C52.5245 71.4238 49.0867 79.488 42.8382 83.5945C23.8391 96.0837 7.48166 70.7654 18.3584 56.8884C18.6895 59.9895 22.4654 64.7756 23.8602 65.5474Z" fill="#FAD15C"/>
</svg>
