<svg width="31" height="23" viewBox="0 0 31 23" fill="none" xmlns="http://www.w3.org/2000/svg">
<path fill-rule="evenodd" clip-rule="evenodd" d="M26.9862 23L21.4159 23C19.2716 23 17.5182 21.2777 17.5182 19.1712C17.5182 11.2931 15.4672 2.63926 25.2985 0.168516C29.7537 -0.949143 30.9142 3.86844 26.1764 4.20052C23.2878 4.40373 22.7227 6.23758 22.6344 9.00819L27.1023 9.00819C29.2467 9.01067 31 10.733 31 12.837L31 19.0572C31 21.2256 29.1937 23 26.9862 23ZM9.64461 23L4.0743 23C1.92993 23 0.176594 21.2777 0.176594 19.1712C0.176595 11.2931 -1.87443 2.63926 7.95687 0.168514C12.4096 -0.949144 13.5701 3.86844 8.8348 4.20052C5.94621 4.40373 5.3811 6.23758 5.29281 9.00819L9.76318 9.00819C11.9076 9.00819 13.6609 10.7305 13.6609 12.837L13.6609 19.0572C13.6584 21.2256 11.852 23 9.64461 23Z" fill="black"/>
</svg>
