<svg width="31" height="23" viewBox="0 0 31 23" fill="none" xmlns="http://www.w3.org/2000/svg">
<path fill-rule="evenodd" clip-rule="evenodd" d="M4.01375 0H9.58407C11.7284 0 13.4818 1.72234 13.4818 3.82879C13.4818 11.7069 15.5328 20.3607 5.7015 22.8315C1.24626 23.9491 0.0857748 19.1316 4.82357 18.7995C7.71216 18.5963 8.27726 16.7624 8.36556 13.9918H3.89771C1.75334 13.9893 0 12.267 0 10.163V3.94279C0 1.77438 1.80632 0 4.01375 0ZM21.3554 0H26.9257C29.0701 0 30.8234 1.72234 30.8234 3.82879C30.8234 11.7069 32.8744 20.3607 23.0431 22.8315C18.5904 23.9491 17.4299 19.1316 22.1652 18.7995C25.0538 18.5963 25.6189 16.7624 25.7072 13.9918H21.2368C19.0924 13.9918 17.3391 12.2695 17.3391 10.163V3.94279C17.3416 1.77438 19.148 0 21.3554 0Z" fill="black"/>
</svg>
