<svg width="16" height="18" viewBox="0 0 16 18" fill="none" xmlns="http://www.w3.org/2000/svg">
<path d="M8.91915 17.6939C1.71925 17.6939 0.747894 14.4731 1.04655 11.7589C1.38034 8.73425 4.06163 6.59829 4.67211 4.86713C5.22111 3.31164 5.79353 1 8.75225 1C8.83789 5.77846 8.91915 17.6939 8.91915 17.6939Z" fill="#6FB56F"/>
<path d="M8.91955 17.6938C8.91955 17.6938 8.89759 14.4694 8.86465 10.7026C7.47386 9.8659 5.55237 8.9692 3.78095 9.01898C3.1324 10.1902 1.50664 10.0174 2.18447 8.70203C1.63035 9.61336 1.17358 10.625 1.04768 11.7618C0.748296 14.4709 1.72112 17.6938 8.91955 17.6938Z" fill="#559958"/>
<path d="M9.02676 17.6939C1.8276 17.6939 0.74791 14.4731 1.04803 11.7589C1.38182 8.73427 4.06311 6.59831 4.67359 4.86715C5.22259 3.31166 5.65666 1.03516 8.61465 1.03516C8.69956 5.81361 9.02676 17.6939 9.02676 17.6939Z" stroke="#232120" stroke-width="0.38048" stroke-miterlimit="10"/>
<path d="M8.80769 17.6908C7.72578 17.6335 6.67388 17.3147 5.7421 16.7619C4.75244 16.1763 3.98531 15.3711 3.51684 14.4342C2.5184 12.43 2.94515 9.9822 4.75098 7.35581C5.82921 5.78787 6.20033 4.58301 6.49825 3.61531C6.71785 2.89869 6.89353 2.33286 7.29246 1.76337C7.63284 1.27879 8.12328 1.01308 8.63933 1.03577C9.26299 1.06358 9.82956 1.48741 10.1948 2.20037C10.3907 2.59274 10.5438 3.00502 10.6516 3.43012C10.9254 4.39269 11.2372 5.4841 13.0093 7.83819C13.9456 9.08258 14.5319 10.327 14.7537 11.5384C14.9521 12.6232 14.851 13.6334 14.4543 14.5396C14.0693 15.3985 13.4439 16.1277 12.6536 16.639C11.8089 17.1975 10.7555 17.5539 9.60703 17.6696C9.34288 17.6955 9.07723 17.7026 8.81208 17.6908H8.80769Z" fill="#E1E53C"/>
<path opacity="0.35" d="M14.7507 11.5371C14.6978 11.2495 14.6264 10.9656 14.5369 10.6872C14.5628 11.4642 14.4922 12.2414 14.3269 13.001C14.3169 13.0404 14.2929 13.0748 14.2594 13.0977C14.2258 13.1207 14.1851 13.1306 14.1448 13.1257C14.1045 13.1207 14.0674 13.1013 14.0404 13.0709C14.0134 13.0405 13.9984 13.0014 13.9982 12.9608C13.9978 12.9537 13.9978 12.9466 13.9982 12.9396C14.0026 10.603 12.2363 8.65372 10.052 8.58419C7.86774 8.51465 6.09339 10.3527 6.08827 12.6885C6.08827 14.3113 6.93738 15.7482 8.19055 16.4948C8.26088 16.5377 8.31512 16.6026 8.34487 16.6794C8.37463 16.7563 8.37824 16.8407 8.35516 16.9198C8.33208 16.9989 8.28359 17.0682 8.21718 17.1169C8.15077 17.1657 8.07015 17.1912 7.98779 17.1895C7.27663 17.1806 6.57078 17.0656 5.89355 16.8484C6.7876 17.3486 7.78458 17.6369 8.80762 17.6909C9.07277 17.7027 9.33842 17.6956 9.60257 17.6697C10.7511 17.554 11.8044 17.1976 12.6491 16.6391C13.4394 16.1277 14.0648 15.3986 14.4498 14.5397C14.8473 13.632 14.9483 12.6219 14.7507 11.5371Z" fill="#4AA853"/>
<path d="M8.63884 1.0358C8.49875 1.03983 8.36118 1.07404 8.23552 1.13609L8.07521 1.1295C7.75736 1.25833 7.48517 1.47904 7.29344 1.7634C6.8945 2.3329 6.72029 2.89873 6.49923 3.61535C6.2013 4.58305 5.83018 5.78791 4.75196 7.35584C2.94613 9.98224 2.51937 12.43 3.51781 14.4342C3.67265 14.7435 3.85804 15.0366 4.0712 15.309C3.19281 13.6122 3.11961 11.1776 4.66265 8.80885C5.66329 7.27166 6.13762 6.45036 6.44213 5.6481C6.46883 5.57791 6.51093 5.5146 6.56533 5.46284C6.61974 5.41108 6.68506 5.37217 6.75649 5.349C6.82791 5.32582 6.90363 5.31896 6.97806 5.32892C7.0525 5.33887 7.12375 5.3654 7.18657 5.40654C7.56794 5.65981 8.1162 5.54708 8.44414 5.27039C9.70463 4.21193 10.4505 0.994079 8.63884 1.0358Z" fill="#E4F757"/>
<path d="M8.80769 17.6908C7.72578 17.6335 6.67388 17.3147 5.7421 16.7619C4.75244 16.1763 3.98531 15.3711 3.51684 14.4342C2.5184 12.43 2.94515 9.9822 4.75098 7.35581C5.82921 5.78787 6.20033 4.58301 6.49825 3.61531C6.71785 2.89869 6.89353 2.33286 7.29246 1.76337C7.63284 1.27879 8.12328 1.01308 8.63933 1.03577C9.26299 1.06358 9.82956 1.48741 10.1948 2.20037C10.3907 2.59274 10.5438 3.00502 10.6516 3.43012C10.9254 4.39269 11.2372 5.4841 13.0093 7.83819C13.9456 9.08258 14.5319 10.327 14.7537 11.5384C14.9521 12.6232 14.851 13.6334 14.4543 14.5396C14.0693 15.3985 13.4439 16.1277 12.6536 16.639C11.8089 17.1975 10.7555 17.5539 9.60703 17.6696C9.34288 17.6955 9.07723 17.7026 8.81208 17.6908H8.80769Z" stroke="#232120" stroke-width="0.38048" stroke-miterlimit="10"/>
<path d="M10.1725 15.888C12.2926 15.3899 13.5769 13.1373 13.0411 10.8567C12.5054 8.57603 10.3524 7.13093 8.23231 7.62898C6.11222 8.12702 4.82788 10.3796 5.36364 12.6603C5.8994 14.9409 8.05239 16.386 10.1725 15.888Z" fill="#9E6C4B"/>
<path d="M13.1573 11.8847C13.1597 11.2008 13.0076 10.5252 12.7122 9.90832C12.8805 10.3451 12.9614 10.8107 12.9501 11.2786C12.904 13.3216 11.167 14.9591 9.07053 14.9386C6.9741 14.9181 5.30735 13.2433 5.35346 11.201C5.39958 9.15875 7.1366 7.52055 9.23303 7.54105C9.37151 7.5424 9.50981 7.55119 9.64734 7.5674C9.50185 7.54539 9.3552 7.53194 9.20814 7.52714C7.0246 7.45833 5.24952 9.29564 5.24513 11.6314C5.24073 13.9672 7.0063 15.9173 9.19057 15.9861C11.3748 16.0549 13.1529 14.2205 13.1573 11.8847Z" fill="#8E5E43"/>
<path d="M10.0154 15.9218C12.1529 15.5048 13.522 13.3027 13.0734 11.0033C12.6247 8.7039 10.5283 7.17795 8.39079 7.59499C6.25329 8.01202 4.88419 10.2141 5.33281 12.5135C5.78143 14.8129 7.87789 16.3388 10.0154 15.9218Z" stroke="#232120" stroke-width="0.38048" stroke-miterlimit="10"/>
<path d="M10.2233 14.0281C9.28997 14.662 10.1354 15.3881 11.0241 14.7381C11.9127 14.0881 11.0804 13.4454 10.2233 14.0281Z" fill="#8E5E43"/>
<path opacity="0.31" d="M6.35378 11.8481C4.75583 11.5487 6.78346 8.04175 8.11056 8.2694C8.91576 8.40921 8.23939 9.39594 7.84778 10.0877C7.35661 10.9566 7.39248 12.0384 6.35378 11.8481Z" fill="#B57E5E"/>
</svg>
