<svg width="20" height="20" viewBox="0 0 20 20" fill="none" xmlns="http://www.w3.org/2000/svg">
<g clip-path="url(#clip0_213_144)">
<path d="M19.249 12.5259C16.4315 11.9525 13.3982 11.6617 10.234 11.6617C6.92403 11.6617 3.64321 11.9942 0.74485 12.6225C0.51985 12.6717 0.376529 12.8933 0.42567 13.1183C0.46735 13.3133 0.64067 13.4466 0.83235 13.4466C0.861529 13.4466 0.89067 13.4441 0.92153 13.4366C3.76235 12.82 6.98235 12.4941 10.234 12.4941C13.3424 12.4941 16.3199 12.78 19.0832 13.3416C19.3074 13.3883 19.5282 13.2425 19.574 13.0166C19.6199 12.7917 19.4749 12.5717 19.249 12.5259Z" fill="#000A40"/>
<path d="M9.99902 3.33331C7.93152 3.33331 6.24902 5.01581 6.24902 7.08331C6.24902 9.15081 7.93152 10.8333 9.99902 10.8333C12.0673 10.8333 13.749 9.15081 13.749 7.08331C13.749 5.01581 12.0665 3.33331 9.99902 3.33331ZM9.99902 9.99999C8.3907 9.99999 7.08234 8.69167 7.08234 7.08331C7.08234 5.47499 8.39066 4.16663 9.99902 4.16663C11.6074 4.16663 12.9157 5.47495 12.9157 7.08331C12.9157 8.69167 11.6073 9.99999 9.99902 9.99999Z" fill="#000A40"/>
<path d="M5.21159 12.14C5.01327 12.0233 4.75741 12.09 4.64077 12.2883L0.474086 19.3717C0.358265 19.57 0.424086 19.8259 0.622406 19.9425C0.689086 19.9817 0.761586 20 0.833226 20C0.975726 20 1.11491 19.9267 1.19323 19.7942L5.35991 12.7109C5.47573 12.5125 5.40991 12.2567 5.21159 12.14Z" fill="#000A40"/>
<path d="M19.5265 19.3717L15.3598 12.2883C15.2431 12.0891 14.9873 12.0225 14.789 12.14C14.5898 12.2575 14.524 12.5125 14.6407 12.7108L18.8074 19.7941C18.8857 19.9266 19.0249 20 19.1674 20C19.239 20 19.3115 19.9816 19.3782 19.9425C19.5773 19.825 19.6431 19.57 19.5265 19.3717Z" fill="#000A40"/>
<path d="M8.42397 11.6758C8.20147 11.6283 7.97647 11.7675 7.92647 11.9925L6.25979 19.4925C6.21061 19.7175 6.35147 19.94 6.57647 19.99C6.60729 19.9966 6.63729 20 6.66729 20C6.85811 20 7.03061 19.8675 7.07397 19.6733L8.74065 12.1733C8.7898 11.9483 8.64898 11.7258 8.42397 11.6758Z" fill="#000A40"/>
<path d="M13.3273 19.515L12.0773 12.015C12.0398 11.7883 11.8265 11.6317 11.5981 11.6725C11.3715 11.71 11.2181 11.925 11.2556 12.1517L12.5056 19.6517C12.5398 19.8559 12.7165 20 12.9165 20C12.939 20 12.9615 19.9983 12.9848 19.9942C13.2115 19.9567 13.3648 19.7417 13.3273 19.515Z" fill="#000A40"/>
<path d="M9.99872 0C9.76871 0 9.58203 0.18668 9.58203 0.41668V2.08336C9.58203 2.31336 9.76871 2.50004 9.99872 2.50004C10.2287 2.50004 10.4154 2.31336 10.4154 2.08336V0.41668C10.4154 0.18668 10.2287 0 9.99872 0Z" fill="#000A40"/>
<path d="M7.85986 2.54497L7.02654 1.10165C6.91154 0.90165 6.65487 0.83333 6.45737 0.94915C6.25819 1.06415 6.18987 1.31915 6.30487 1.51833L7.13818 2.96165C7.21568 3.09583 7.35568 3.16997 7.49986 3.16997C7.57068 3.16997 7.64154 3.15165 7.70736 3.11415C7.90654 2.99915 7.97486 2.74415 7.85986 2.54497Z" fill="#000A40"/>
<path d="M5.87795 4.22248L4.43463 3.38916C4.23545 3.27416 3.98044 3.34248 3.86544 3.54166C3.75044 3.74084 3.81876 3.99584 4.01712 4.11084L5.46045 4.94416C5.52627 4.98248 5.59795 4.99998 5.66877 4.99998C5.81295 4.99998 5.95295 4.9258 6.03045 4.79166C6.14545 4.59248 6.07713 4.33748 5.87795 4.22248Z" fill="#000A40"/>
<path d="M15.9814 10.0558L14.5381 9.22246C14.3389 9.10665 14.0839 9.17497 13.9689 9.37496C13.8539 9.57414 13.9223 9.82914 14.1214 9.94414L15.5648 10.7775C15.6306 10.8158 15.7023 10.8333 15.7731 10.8333C15.9173 10.8333 16.0573 10.7591 16.1339 10.625C16.2489 10.4258 16.1806 10.1708 15.9814 10.0558Z" fill="#000A40"/>
<path d="M4.99937 6.66669H3.3327C3.1027 6.66669 2.91602 6.85337 2.91602 7.08337C2.91602 7.31337 3.1027 7.50001 3.3327 7.50001H4.99937C5.22937 7.50001 5.41605 7.31333 5.41605 7.08333C5.41605 6.85333 5.22937 6.66669 4.99937 6.66669Z" fill="#000A40"/>
<path d="M16.6654 6.66669H14.9987C14.7687 6.66669 14.582 6.85337 14.582 7.08337C14.582 7.31337 14.7687 7.50001 14.9987 7.50001H16.6654C16.8954 7.50001 17.0821 7.31333 17.0821 7.08333C17.0821 6.85333 16.8954 6.66669 16.6654 6.66669Z" fill="#000A40"/>
<path d="M6.02943 9.37496C5.91361 9.17497 5.65861 9.10665 5.46025 9.22246L4.01694 10.0558C3.81776 10.1708 3.74944 10.4258 3.86444 10.625C3.94194 10.7591 4.08194 10.8333 4.22612 10.8333C4.29694 10.8333 4.36862 10.8158 4.43362 10.7775L5.87693 9.94414C6.07611 9.82914 6.14443 9.57414 6.02943 9.37496Z" fill="#000A40"/>
<path d="M16.1339 3.54166C16.0181 3.34248 15.7631 3.27416 15.5648 3.38916L14.1214 4.22248C13.9223 4.33748 13.8539 4.59248 13.9689 4.79166C14.0464 4.92584 14.1864 4.99998 14.3306 4.99998C14.4014 4.99998 14.4731 4.98248 14.5381 4.94416L15.9814 4.11084C16.1806 3.9958 16.2489 3.7408 16.1339 3.54166Z" fill="#000A40"/>
<path d="M13.5413 0.94915C13.3413 0.83333 13.0872 0.90165 12.9722 1.10165L12.1389 2.54497C12.0239 2.74415 12.0922 2.99915 12.2914 3.11415C12.3572 3.15247 12.4289 3.16997 12.4997 3.16997C12.643 3.16997 12.783 3.09497 12.8605 2.96165L13.6938 1.51833C13.8088 1.31915 13.7405 1.06415 13.5413 0.94915Z" fill="#000A40"/>
</g>
<defs>
<clipPath id="clip0_213_144">
<rect width="20" height="20" fill="white"/>
</clipPath>
</defs>
</svg>
