<svg width="23" height="23" viewBox="0 0 23 23" fill="none" xmlns="http://www.w3.org/2000/svg">
<g clip-path="url(#clip0_213_291)">
<path d="M22.6637 10.0835C22.4778 10.0835 22.3271 10.2342 22.3271 10.4201V12.5799C22.3271 13.0011 23.0003 13.0203 23.0003 12.5799V10.4201C23.0003 10.2342 22.8497 10.0835 22.6637 10.0835Z" fill="#000A40"/>
<path d="M21.2692 7.888C21.0833 7.888 20.9326 8.0387 20.9326 8.22459V14.7755C20.9326 15.1967 21.6058 15.2159 21.6058 14.7755V8.22459C21.6058 8.0387 21.4551 7.888 21.2692 7.888Z" fill="#000A40"/>
<path d="M19.8757 8.62097C19.6897 8.62097 19.5391 8.77167 19.5391 8.95756V14.0424C19.5391 14.4636 20.2122 14.4828 20.2122 14.0424V8.95756C20.2122 8.77167 20.0616 8.62097 19.8757 8.62097Z" fill="#000A40"/>
<path d="M18.4811 6.36108C18.2952 6.36108 18.1445 6.51178 18.1445 6.69767V16.3023C18.1445 16.7235 18.8177 16.7427 18.8177 16.3023V6.69767C18.8177 6.51178 18.667 6.36108 18.4811 6.36108Z" fill="#000A40"/>
<path d="M0.336585 10.0835C0.150656 10.0835 0 10.2342 0 10.4201V12.5799C0 13.0011 0.673171 13.0203 0.673171 12.5799V10.4201C0.673171 10.2342 0.522515 10.0835 0.336585 10.0835Z" fill="#000A40"/>
<path d="M1.73112 7.888C1.54519 7.888 1.39453 8.0387 1.39453 8.22459V14.7755C1.39453 15.1967 2.0677 15.2159 2.0677 14.7755V8.22459C2.0677 8.0387 1.917 7.888 1.73112 7.888Z" fill="#000A40"/>
<path d="M3.12467 8.62097C2.93874 8.62097 2.78809 8.77167 2.78809 8.95756V14.0424C2.78809 14.4636 3.46126 14.4828 3.46126 14.0424V8.95756C3.46126 8.77167 3.3106 8.62097 3.12467 8.62097Z" fill="#000A40"/>
<path d="M4.5192 6.36108C4.33327 6.36108 4.18262 6.51178 4.18262 6.69767V16.3023C4.18262 16.7235 4.85579 16.7427 4.85579 16.3023V6.69767C4.85579 6.51178 4.70509 6.36108 4.5192 6.36108Z" fill="#000A40"/>
<path d="M17.4141 9.03651C17.4202 9.01115 17.4238 8.98481 17.4238 8.95757V5.33533C17.4238 4.9141 16.7506 4.89494 16.7506 5.33533V7.83494C16.5354 7.52816 16.2941 7.24085 16.0297 6.9767V2.38975C16.0297 1.96853 15.3566 1.94937 15.3566 2.38975V6.39166C15.1277 6.21897 14.8869 6.06145 14.6357 5.92022V3.30975C14.6357 2.88853 13.9625 2.86937 13.9625 3.30975V5.59207C13.7288 5.49473 13.4883 5.41077 13.2416 5.34138V1.40244C13.2416 0.981212 12.5685 0.962049 12.5685 1.40244V5.19127C12.325 5.15061 12.077 5.12341 11.8251 5.11116V0.347803C11.8251 -0.0734221 11.152 -0.092585 11.152 0.347803V5.11363C10.9078 5.12723 10.6673 5.15465 10.4311 5.19499V1.40244C10.4311 0.981212 9.75792 0.962049 9.75792 1.40244V5.34758C9.51127 5.41795 9.27068 5.5029 9.03705 5.60127V3.30975C9.03705 2.88853 8.36388 2.86937 8.36388 3.30975V5.93283C8.11252 6.0755 7.87179 6.23468 7.643 6.4089V2.38975C7.643 1.96853 6.96983 1.94937 6.96983 2.38975V6.99958C6.70505 7.26674 6.46374 7.55715 6.24895 7.8673V5.33533C6.24895 4.9141 5.57578 4.89494 5.57578 5.33533V9.05414C5.57578 9.07138 5.57749 9.08816 5.58 9.10472C5.27995 9.84494 5.11426 10.6534 5.11426 11.5C5.11426 12.3267 5.26972 13.1297 5.57578 13.8888V17.6647C5.57578 18.0859 6.24895 18.1051 6.24895 17.6647V13.957C6.24895 13.1339 5.78743 12.8015 5.78743 11.5C5.78743 8.34408 8.35499 5.77652 11.5109 5.77652C14.6668 5.77652 17.2344 8.34404 17.2344 11.5C17.2344 14.656 14.667 17.2235 11.5111 17.2235C10.0411 17.2235 8.64383 16.6672 7.57685 15.657C7.36516 15.4565 6.97001 15.6079 6.97001 15.9014V20.6102C6.97001 21.0315 7.64318 21.0506 7.64318 20.6102V16.5949C7.87358 16.7702 8.11436 16.929 8.36406 17.0704V19.6903C8.36406 20.1115 9.03723 20.1307 9.03723 19.6903V17.4008C9.27203 17.4993 9.51271 17.5835 9.7581 17.6532V21.5976C9.7581 22.0188 10.4313 22.038 10.4313 21.5976V17.8057C10.6686 17.846 10.9093 17.8729 11.1522 17.8864V22.6522C11.1522 23.0734 11.8253 23.0926 11.8253 22.6522V17.8888C12.0772 17.8766 12.3251 17.8494 12.5686 17.8087V21.5976C12.5686 22.0188 13.2418 22.0379 13.2418 21.5976V17.6586C13.4884 17.5892 13.729 17.5053 13.9627 17.4079V19.6902C13.9627 20.1115 14.6359 20.1306 14.6359 19.6902V17.0797C14.887 16.9385 15.1279 16.781 15.3567 16.6083V20.6102C15.3567 21.0314 16.0299 21.0506 16.0299 20.6102V16.0233C16.2943 15.7591 16.5355 15.4718 16.7508 15.165V17.6646C16.7508 18.0859 17.4239 18.105 17.4239 17.6646V14.0424C17.4239 14.0151 17.4204 13.9888 17.4143 13.9634C17.732 13.2048 17.9079 12.3726 17.9079 11.5C17.9079 10.6273 17.7319 9.79513 17.4141 9.03651Z" fill="#000A40"/>
<path d="M12.7372 8.8703C13.1339 8.72866 12.9255 8.0882 12.5108 8.23635L10.0969 9.09846C9.96416 9.1458 9.87347 9.27523 9.87347 9.41543V12.6371C9.70342 12.5493 9.51076 12.4994 9.30652 12.4994C8.62276 12.4994 8.06641 13.0557 8.06641 13.7395C8.06641 14.4233 8.62271 14.9796 9.30652 14.9796C9.99033 14.9796 10.5466 14.4233 10.5466 13.7395V10.8143L13.4875 9.764V11.3464C13.3175 11.2586 13.1248 11.2087 12.9206 11.2087C12.2368 11.2087 11.6805 11.765 11.6805 12.4488C11.6805 13.1326 12.2368 13.6889 12.9206 13.6889C13.6044 13.6889 14.1607 13.1326 14.1607 12.4488V8.12478C14.1607 7.70356 13.4875 7.68439 13.4875 8.12478V9.04927L10.5466 10.0996V9.65274L12.7372 8.8703ZM12.9206 13.0156C12.608 13.0156 12.3537 12.7613 12.3537 12.4487C12.3537 12.1361 12.608 11.8817 12.9206 11.8817C13.2333 11.8817 13.4876 12.1361 13.4876 12.4487C13.4876 12.7613 13.2333 13.0156 12.9206 13.0156ZM9.30657 14.3064C8.99395 14.3064 8.73962 14.0521 8.73962 13.7395C8.73962 13.4269 8.99395 13.1725 9.30657 13.1725C9.61919 13.1725 9.87351 13.4269 9.87351 13.7395C9.87351 14.0521 9.61914 14.3064 9.30657 14.3064Z" fill="#000A40"/>
</g>
<defs>
<clipPath id="clip0_213_291">
<rect width="23" height="23" fill="white"/>
</clipPath>
</defs>
</svg>
