<svg width="21" height="21" viewBox="0 0 21 21" fill="none" xmlns="http://www.w3.org/2000/svg">
<g clip-path="url(#clip0_213_364)">
<path d="M20.3013 4.81081C19.8821 4.37165 19.3032 4.11214 18.6445 4.11214H15.3308V4.07222C15.3308 3.57317 15.1312 3.09408 14.7918 2.77469C14.4525 2.43534 13.9933 2.23572 13.4943 2.23572H7.5057C6.98669 2.23572 6.52757 2.43534 6.18821 2.77469C5.84886 3.11404 5.64924 3.57317 5.64924 4.07222V4.11214H2.35551C1.69677 4.11214 1.11787 4.37165 0.698669 4.81081C0.279468 5.23001 0 5.82887 0 6.46766V16.4087C0 17.0675 0.259506 17.6464 0.698669 18.0656C1.11787 18.4848 1.71673 18.7642 2.35551 18.7642H18.6445C19.3032 18.7642 19.8821 18.5047 20.3013 18.0656C20.7205 17.6464 21 17.0475 21 16.4087V6.46766C21 5.80891 20.7405 5.23001 20.3013 4.81081ZM19.962 16.4087H19.942C19.942 16.768 19.8023 17.0874 19.5627 17.327C19.3232 17.5665 19.0038 17.7062 18.6445 17.7062H2.35551C1.9962 17.7062 1.67681 17.5665 1.43726 17.327C1.19772 17.0874 1.05798 16.768 1.05798 16.4087V6.46766C1.05798 6.10834 1.19772 5.78895 1.43726 5.54941C1.67681 5.30986 1.9962 5.17013 2.35551 5.17013H6.20818C6.50761 5.17013 6.74715 4.93058 6.74715 4.63116V4.05226C6.74715 3.83268 6.827 3.63306 6.96673 3.49332C7.10646 3.35359 7.30608 3.27374 7.52567 3.27374H13.4943C13.7139 3.27374 13.9135 3.35359 14.0532 3.49332C14.193 3.63306 14.2728 3.83268 14.2728 4.05226V4.63116C14.2728 4.93058 14.5124 5.17013 14.8118 5.17013H18.6644C19.0238 5.17013 19.3432 5.30986 19.5827 5.54941C19.8222 5.78895 19.962 6.10834 19.962 6.46766V16.4087Z" fill="#000A40"/>
<path d="M10.4995 6.52753C9.1421 6.52753 7.90446 7.08646 7.02613 7.96479C6.12784 8.86308 5.58887 10.0808 5.58887 11.4382C5.58887 12.7956 6.1478 14.0332 7.02613 14.9116C7.92442 15.8099 9.1421 16.3488 10.4995 16.3488C11.8569 16.3488 13.0946 15.7899 13.9729 14.9116C14.8712 14.0133 15.4102 12.7956 15.4102 11.4382C15.4102 10.0808 14.8512 8.84312 13.9729 7.96479C13.0946 7.08646 11.8569 6.52753 10.4995 6.52753ZM13.2143 14.173C12.5157 14.8517 11.5575 15.2908 10.4995 15.2908C9.44153 15.2908 8.48336 14.8517 7.78469 14.173C7.08602 13.4743 6.66682 12.5161 6.66682 11.4581C6.66682 10.4002 7.10598 9.44198 7.78469 8.74331C8.48336 8.04464 9.44153 7.62544 10.4995 7.62544C11.5575 7.62544 12.5157 8.0646 13.2143 8.74331C13.913 9.44198 14.3322 10.4002 14.3322 11.4581C14.3522 12.5161 13.913 13.4743 13.2143 14.173Z" fill="#000A40"/>
<path d="M17.6061 8.46384C18.1463 8.46384 18.5842 8.02592 18.5842 7.48571C18.5842 6.9455 18.1463 6.50757 17.6061 6.50757C17.0659 6.50757 16.6279 6.9455 16.6279 7.48571C16.6279 8.02592 17.0659 8.46384 17.6061 8.46384Z" fill="#000A40"/>
</g>
<defs>
<clipPath id="clip0_213_364">
<rect width="21" height="21" fill="white"/>
</clipPath>
</defs>
</svg>
