<svg width="20" height="20" viewBox="0 0 20 20" fill="none" xmlns="http://www.w3.org/2000/svg">
<g clip-path="url(#clip0_213_386)">
<path d="M3.98062 20L3.0913 18.7154L3.08579 18.7192C3.15204 18.6716 4.70772 17.5231 4.70772 14.8629C4.70772 13.5292 3.8309 12.0938 2.90256 10.5741C1.86978 8.88343 0.801758 7.1351 0.801758 5.25229C0.801758 1.5899 3.00572 0.0631992 3.0995 0L3.97242 1.29586L3.97871 1.29152C3.91277 1.33789 2.36416 2.45918 2.36416 5.25229C2.36416 6.69567 3.3157 8.25335 4.23592 9.7597C5.23601 11.3969 6.27017 13.0898 6.27017 14.863C6.27017 18.3746 4.07409 19.9353 3.98062 20ZM10.6058 14.863C10.6058 13.0898 9.57168 11.3969 8.57158 9.7597C7.65137 8.25335 6.69983 6.69567 6.69983 5.25229C6.69983 2.45918 8.24844 1.33789 8.31437 1.29152L8.30809 1.29586L7.43517 0C7.34139 0.0631992 5.13742 1.5899 5.13742 5.25229C5.13742 7.13514 6.20544 8.88343 7.23827 10.5742C8.16661 12.0939 9.04343 13.5292 9.04343 14.863C9.04343 17.5231 7.48775 18.6716 7.4215 18.7193L7.42701 18.7154L8.31633 20C8.40976 19.9353 10.6058 18.3746 10.6058 14.863ZM14.9024 14.863C14.9024 13.0898 13.8683 11.3969 12.8682 9.7597C11.948 8.25335 10.9964 6.69567 10.9964 5.25229C10.9964 2.45918 12.545 1.33789 12.611 1.29152L12.6047 1.29586L11.7318 0C11.638 0.0631992 9.43403 1.5899 9.43403 5.25229C9.43403 7.13514 10.5021 8.88343 11.5349 10.5742C12.4632 12.0939 13.34 13.5292 13.34 14.863C13.34 17.5231 11.7844 18.6716 11.7181 18.7193L11.7236 18.7154L12.6129 20C12.7064 19.9353 14.9024 18.3746 14.9024 14.863ZM19.199 14.863C19.199 13.0898 18.1649 11.3969 17.1648 9.7597C16.2446 8.25335 15.293 6.69567 15.293 5.25229C15.293 2.45918 16.8417 1.33789 16.9076 1.29152L16.9013 1.29586L16.0284 0C15.9346 0.0631992 13.7306 1.5899 13.7306 5.25229C13.7306 7.13514 14.7987 8.88343 15.8315 10.5742C16.7598 12.0939 17.6366 13.5292 17.6366 14.863C17.6366 17.5231 16.081 18.6716 16.0147 18.7193L16.0202 18.7154L16.9095 20C17.003 19.9353 19.199 18.3746 19.199 14.863Z" fill="#000A40"/>
</g>
<defs>
<clipPath id="clip0_213_386">
<rect width="20" height="20" fill="white"/>
</clipPath>
</defs>
</svg>
