<svg width="24" height="24" viewBox="0 0 24 24" fill="none" xmlns="http://www.w3.org/2000/svg">
<path d="M10.1294 23.4944C10.6974 23.8248 11.3428 23.9989 12 23.9989C12.6571 23.9989 13.3026 23.8248 13.8706 23.4944L20.9426 19.3744C21.5073 19.0431 21.9758 18.5701 22.3016 18.0022C22.6274 17.4342 22.7993 16.7911 22.8002 16.1364V7.86355C22.7996 7.20848 22.6279 6.56491 22.3021 5.99661C21.9763 5.42831 21.5076 4.95499 20.9426 4.62355L13.871 0.505553C13.3029 0.175422 12.6575 0.00152588 12.0004 0.00152588C11.3433 0.00152588 10.6979 0.175422 10.1298 0.505553L3.0574 4.62515C2.49266 4.95651 2.02424 5.42959 1.6985 5.99758C1.37276 6.56558 1.20099 7.20879 1.2002 7.86355V16.1364C1.20076 16.7914 1.37245 17.435 1.69828 18.0033C2.02411 18.5716 2.49275 19.0449 3.0578 19.3764L10.1294 23.4944ZM2.0002 16.1364V7.86355C2.00059 7.34863 2.13547 6.84275 2.39148 6.39598C2.64749 5.94921 3.01575 5.57705 3.4598 5.31635L10.5326 1.19635C10.9783 0.937163 11.4848 0.800628 12.0004 0.800628C12.516 0.800628 13.0224 0.937163 13.4682 1.19635L20.5402 5.31635C20.9843 5.57697 21.3527 5.9491 21.6088 6.39588C21.8649 6.84266 21.9998 7.34859 22.0002 7.86355V16.1364C21.9998 16.6513 21.865 17.1572 21.609 17.604C21.3529 18.0507 20.9847 18.4229 20.5406 18.6836L13.4678 22.8036C13.022 23.0625 12.5156 23.199 12 23.199C11.4844 23.199 10.978 23.0625 10.5322 22.8036L3.4598 18.6836C3.01572 18.4229 2.64744 18.0507 2.39143 17.604C2.13542 17.1572 2.00055 16.6513 2.0002 16.1364Z" fill="#000A40"/>
<path d="M10.935 22.112C11.2582 22.3006 11.6256 22.4 11.9998 22.4C12.374 22.4 12.7414 22.3006 13.0646 22.112L20.1374 17.992C20.4607 17.8019 20.7288 17.5308 20.9152 17.2053C21.1015 16.8799 21.1996 16.5114 21.1998 16.1364V7.86356C21.1997 7.48842 21.1016 7.11982 20.9151 6.79428C20.7287 6.46873 20.4605 6.19754 20.137 6.00756L13.0646 1.88796C12.7403 1.70276 12.3733 1.60535 11.9998 1.60535C11.6263 1.60535 11.2593 1.70276 10.935 1.88796L3.863 6.00796C3.53953 6.19789 3.27128 6.469 3.0848 6.79447C2.89831 7.11993 2.80008 7.48846 2.7998 7.86356V16.1364C2.79992 16.5115 2.89805 16.8801 3.08447 17.2057C3.27089 17.5312 3.53912 17.8024 3.8626 17.9924L10.935 22.112ZM3.5998 7.86356C3.59973 7.62826 3.66109 7.39702 3.77783 7.19272C3.89458 6.98843 4.06264 6.81816 4.2654 6.69876L11.3374 2.57876C11.5384 2.46142 11.767 2.39959 11.9998 2.39959C12.2326 2.39959 12.4612 2.46142 12.6622 2.57876L19.7342 6.69876C19.937 6.81816 20.105 6.98843 20.2218 7.19272C20.3385 7.39702 20.3999 7.62826 20.3998 7.86356V16.1364C20.3999 16.3716 20.3386 16.6028 20.2219 16.8071C20.1052 17.0114 19.9373 17.1817 19.7346 17.3012L12.6622 21.4212C12.4604 21.5364 12.2321 21.5969 11.9998 21.5969C11.7675 21.5969 11.5392 21.5364 11.3374 21.4212L4.2654 17.3012C4.06264 17.1818 3.89458 17.0115 3.77783 16.8072C3.66109 16.6029 3.59973 16.3717 3.5998 16.1364V7.86356Z" fill="#000A40"/>
<path d="M6.4 11.6C6.50609 11.6 6.60783 11.5578 6.68284 11.4828C6.75786 11.4078 6.8 11.3061 6.8 11.2V8.64399L8.45721 11.406C8.49275 11.4652 8.543 11.5141 8.60307 11.5481C8.66314 11.5821 8.73099 11.6 8.80001 11.6C8.83609 11.6 8.872 11.5951 8.90681 11.5856C8.99113 11.5622 9.06546 11.5119 9.11842 11.4422C9.17137 11.3726 9.20003 11.2875 9.20001 11.2V7.19999C9.20001 7.0939 9.15787 6.99216 9.08285 6.91714C9.00784 6.84213 8.90609 6.79999 8.80001 6.79999C8.69392 6.79999 8.59218 6.84213 8.51716 6.91714C8.44215 6.99216 8.40001 7.0939 8.40001 7.19999V9.75599L6.7428 6.99399C6.69775 6.91906 6.62938 6.86095 6.54816 6.82857C6.46695 6.79618 6.37736 6.7913 6.2931 6.81466C6.20885 6.83803 6.13457 6.88836 6.08164 6.95795C6.0287 7.02754 6.00003 7.11255 6 7.19999V11.2C6 11.3061 6.04214 11.4078 6.11716 11.4828C6.19217 11.5578 6.29391 11.6 6.4 11.6Z" fill="#000A40"/>
<path d="M10.8004 11.6C10.9065 11.6 11.0082 11.5578 11.0832 11.4828C11.1583 11.4078 11.2004 11.3061 11.2004 11.2V9.59999H12.0004C12.1065 9.59999 12.2082 9.55785 12.2832 9.48283C12.3583 9.40782 12.4004 9.30608 12.4004 9.19999C12.4004 9.0939 12.3583 8.99216 12.2832 8.91715C12.2082 8.84213 12.1065 8.79999 12.0004 8.79999H11.2004V7.59999H13.2004C13.3065 7.59999 13.4082 7.55785 13.4832 7.48283C13.5583 7.40782 13.6004 7.30607 13.6004 7.19999C13.6004 7.0939 13.5583 6.99216 13.4832 6.91714C13.4082 6.84213 13.3065 6.79999 13.2004 6.79999H10.8004C10.6943 6.79999 10.5926 6.84213 10.5175 6.91714C10.4425 6.99216 10.4004 7.0939 10.4004 7.19999V11.2C10.4004 11.3061 10.4425 11.4078 10.5175 11.4828C10.5926 11.5578 10.6943 11.6 10.8004 11.6Z" fill="#000A40"/>
<path d="M14.7994 7.59999H15.5994V11.2C15.5994 11.3061 15.6416 11.4078 15.7166 11.4828C15.7916 11.5578 15.8933 11.6 15.9994 11.6C16.1055 11.6 16.2072 11.5578 16.2823 11.4828C16.3573 11.4078 16.3994 11.3061 16.3994 11.2V7.59999H17.1994C17.3055 7.59999 17.4072 7.55785 17.4823 7.48283C17.5573 7.40782 17.5994 7.30607 17.5994 7.19999C17.5994 7.0939 17.5573 6.99216 17.4823 6.91714C17.4072 6.84213 17.3055 6.79999 17.1994 6.79999H14.7994C14.6933 6.79999 14.5916 6.84213 14.5166 6.91714C14.4416 6.99216 14.3994 7.0939 14.3994 7.19999C14.3994 7.30607 14.4416 7.40782 14.5166 7.48283C14.5916 7.55785 14.6933 7.59999 14.7994 7.59999Z" fill="#000A40"/>
<path d="M9.60019 13.6H13.6002C13.7063 13.6 13.808 13.5579 13.883 13.4829C13.958 13.4079 14.0002 13.3061 14.0002 13.2C14.0002 13.094 13.958 12.9922 13.883 12.9172C13.808 12.8422 13.7063 12.8 13.6002 12.8H9.60019C9.49411 12.8 9.39237 12.8422 9.31735 12.9172C9.24234 12.9922 9.2002 13.094 9.2002 13.2C9.2002 13.3061 9.24234 13.4079 9.31735 13.4829C9.39237 13.5579 9.49411 13.6 9.60019 13.6Z" fill="#000A40"/>
<path d="M13.2004 14.4H10.8004C10.6943 14.4 10.5926 14.4422 10.5175 14.5172C10.4425 14.5922 10.4004 14.6939 10.4004 14.8C10.4004 14.9061 10.4425 15.0078 10.5175 15.0829C10.5926 15.1579 10.6943 15.2 10.8004 15.2H13.2004C13.3065 15.2 13.4082 15.1579 13.4832 15.0829C13.5583 15.0078 13.6004 14.9061 13.6004 14.8C13.6004 14.6939 13.5583 14.5922 13.4832 14.5172C13.4082 14.4422 13.3065 14.4 13.2004 14.4Z" fill="#000A40"/>
<path d="M14.7994 15.2H18.3994C18.5055 15.2 18.6072 15.1579 18.6823 15.0829C18.7573 15.0078 18.7994 14.9061 18.7994 14.8C18.7994 14.6939 18.7573 14.5922 18.6823 14.5172C18.6072 14.4422 18.5055 14.4 18.3994 14.4H14.7994C14.6933 14.4 14.5916 14.4422 14.5166 14.5172C14.4416 14.5922 14.3994 14.6939 14.3994 14.8C14.3994 14.9061 14.4416 15.0078 14.5166 15.0829C14.5916 15.1579 14.6933 15.2 14.7994 15.2Z" fill="#000A40"/>
<path d="M13.2004 17.6H10.8004C10.6943 17.6 10.5926 17.6421 10.5175 17.7171C10.4425 17.7921 10.4004 17.8939 10.4004 18C10.4004 18.1061 10.4425 18.2078 10.5175 18.2828C10.5926 18.3578 10.6943 18.4 10.8004 18.4H13.2004C13.3065 18.4 13.4082 18.3578 13.4832 18.2828C13.5583 18.2078 13.6004 18.1061 13.6004 18C13.6004 17.8939 13.5583 17.7921 13.4832 17.7171C13.4082 17.6421 13.3065 17.6 13.2004 17.6Z" fill="#000A40"/>
<path d="M16.3994 17.6H14.7994C14.6933 17.6 14.5916 17.6421 14.5166 17.7171C14.4416 17.7921 14.3994 17.8939 14.3994 18C14.3994 18.1061 14.4416 18.2078 14.5166 18.2828C14.5916 18.3578 14.6933 18.4 14.7994 18.4H16.3994C16.5055 18.4 16.6072 18.3578 16.6823 18.2828C16.7573 18.2078 16.7994 18.1061 16.7994 18C16.7994 17.8939 16.7573 17.7921 16.6823 17.7171C16.6072 17.6421 16.5055 17.6 16.3994 17.6Z" fill="#000A40"/>
<path d="M12.8 16.7999C12.9061 16.7999 13.0078 16.7578 13.0829 16.6828C13.1579 16.6078 13.2 16.506 13.2 16.3999C13.2 16.2938 13.1579 16.1921 13.0829 16.1171C13.0078 16.0421 12.9061 15.9999 12.8 15.9999H10.4C10.2939 15.9999 10.1922 16.0421 10.1172 16.1171C10.0421 16.1921 10 16.2938 10 16.3999C10 16.506 10.0421 16.6078 10.1172 16.6828C10.1922 16.7578 10.2939 16.7999 10.4 16.7999H12.8Z" fill="#000A40"/>
<path d="M14.4 16.7999H18C18.1061 16.7999 18.2078 16.7578 18.2828 16.6828C18.3579 16.6078 18.4 16.506 18.4 16.3999C18.4 16.2938 18.3579 16.1921 18.2828 16.1171C18.2078 16.0421 18.1061 15.9999 18 15.9999H14.4C14.2939 15.9999 14.1922 16.0421 14.1172 16.1171C14.0421 16.1921 14 16.2938 14 16.3999C14 16.506 14.0421 16.6078 14.1172 16.6828C14.1922 16.7578 14.2939 16.7999 14.4 16.7999Z" fill="#000A40"/>
<path d="M7.99961 12.8C7.89352 12.8 7.79178 12.8422 7.71677 12.9172C7.64175 12.9922 7.59961 13.094 7.59961 13.2V18C7.59961 18.1061 7.64175 18.2079 7.71677 18.2829C7.79178 18.3579 7.89352 18.4 7.99961 18.4C8.1057 18.4 8.20744 18.3579 8.28245 18.2829C8.35747 18.2079 8.39961 18.1061 8.39961 18V13.2C8.39961 13.094 8.35747 12.9922 8.28245 12.9172C8.20744 12.8422 8.1057 12.8 7.99961 12.8Z" fill="#000A40"/>
<path d="M5.6002 13.6H6.4002C6.50629 13.6 6.60803 13.5579 6.68304 13.4829C6.75806 13.4079 6.8002 13.3061 6.8002 13.2C6.8002 13.094 6.75806 12.9922 6.68304 12.9172C6.60803 12.8422 6.50629 12.8 6.4002 12.8H5.6002C5.49411 12.8 5.39237 12.8422 5.31735 12.9172C5.24234 12.9922 5.2002 13.094 5.2002 13.2C5.2002 13.3061 5.24234 13.4079 5.31735 13.4829C5.39237 13.5579 5.49411 13.6 5.6002 13.6Z" fill="#000A40"/>
<path d="M5.6002 15.2H6.4002C6.50629 15.2 6.60803 15.1579 6.68304 15.0829C6.75806 15.0078 6.8002 14.9061 6.8002 14.8C6.8002 14.6939 6.75806 14.5922 6.68304 14.5172C6.60803 14.4422 6.50629 14.4 6.4002 14.4H5.6002C5.49411 14.4 5.39237 14.4422 5.31735 14.5172C5.24234 14.5922 5.2002 14.6939 5.2002 14.8C5.2002 14.9061 5.24234 15.0078 5.31735 15.0829C5.39237 15.1579 5.49411 15.2 5.6002 15.2Z" fill="#000A40"/>
<path d="M5.6002 16.7999H6.4002C6.50629 16.7999 6.60803 16.7578 6.68304 16.6828C6.75806 16.6078 6.8002 16.506 6.8002 16.3999C6.8002 16.2938 6.75806 16.1921 6.68304 16.1171C6.60803 16.0421 6.50629 15.9999 6.4002 15.9999H5.6002C5.49411 15.9999 5.39237 16.0421 5.31735 16.1171C5.24234 16.1921 5.2002 16.2938 5.2002 16.3999C5.2002 16.506 5.24234 16.6078 5.31735 16.6828C5.39237 16.7578 5.49411 16.7999 5.6002 16.7999Z" fill="#000A40"/>
</svg>
