<svg width="14" height="24" viewBox="0 0 14 24" fill="none" xmlns="http://www.w3.org/2000/svg">
<path d="M12.9815 17.8725C13.4167 15.2623 13.8278 12.7967 13.8286 11.2612C13.8413 10.5435 13.5457 9.30874 12.6284 9.29374C10.4691 8.9681 8.72404 8.57974 8.17776 8.45332L7.90822 7.75404C8.58074 7.35302 8.76725 6.47135 8.85711 5.74971C9.66411 5.42651 10.0612 4.61304 10.1019 3.7811C10.175 2.28504 9.22771 1.55604 8.59879 1.32771C8.2063 0.575927 7.69194 0.13863 7.06832 0.0272082C6.23113 -0.122464 5.4628 0.380271 5.11869 0.652896C4.5013 0.409614 3.38488 0.312255 2.40018 1.27727C1.43746 2.22063 1.66035 3.59547 1.74529 3.97446C1.65918 4.33858 1.41599 5.64668 2.10135 6.55535C2.48999 7.07065 3.09266 7.35724 3.89394 7.41086C4.07896 8.17291 4.25999 8.87397 4.34835 9.21222C4.01718 9.49535 3.51036 9.85577 2.97829 10.2342C1.84499 11.0402 0.673068 11.8736 0.343255 12.5267C0.0747086 13.0584 0.119615 13.981 0.480506 15.3472C0.733818 16.3062 1.04961 17.1184 1.06293 17.1525C1.06377 17.1546 1.06504 17.1565 1.06593 17.1587C1.21279 17.5435 1.64094 17.7556 2.18319 17.7555C2.4494 17.7555 2.74297 17.7045 3.04382 17.5978C3.54482 17.4202 3.95404 17.1221 4.17088 16.7836C4.1923 16.7978 4.21288 16.8124 4.2351 16.8261C4.24218 16.8304 4.24968 16.8345 4.25694 16.8387C4.34047 17.4595 4.3565 18.1237 4.30419 18.8134C4.25179 19.504 4.01901 20.1738 3.63097 20.7501C3.16105 21.4481 2.76074 22.1483 2.44115 22.8311C2.32138 23.0869 2.34041 23.3819 2.49186 23.62C2.64318 23.8579 2.90188 23.9999 3.18388 23.9999H12.7755C13.016 23.9999 13.2434 23.8951 13.3997 23.7123C13.5554 23.53 13.6234 23.2897 13.5861 23.0531C13.5192 22.6297 13.3768 21.9751 13.0774 21.2611C12.7694 20.5265 12.6746 19.7257 12.8033 18.9453C12.8622 18.5878 12.9219 18.2294 12.9815 17.8725ZM13.0398 12.5991C12.5506 12.6296 12.3154 11.5854 12.2755 11.2573C12.1777 10.4537 12.3846 10.1515 12.4503 10.078C12.6333 9.87335 12.8316 10.1163 12.9218 10.2858C13.0537 10.5335 13.1278 10.8824 13.1256 11.2443L13.0398 12.5991ZM6.94705 0.719833C7.37165 0.796802 7.73736 1.15029 8.03404 1.77054C8.14452 2.00163 8.66652 2.1289 8.85238 2.2909C9.2459 2.63393 9.42993 3.12377 9.39951 3.74688C9.36833 4.38532 9.1274 4.73402 8.89799 4.92283C8.88121 4.26199 8.74579 3.61596 8.49182 3.06996C8.24924 2.54843 7.78855 2.44338 7.34305 2.3418C6.97415 2.25766 6.55757 2.16199 6.09463 1.83457L5.64083 1.1389C5.92443 0.930302 6.43916 0.627864 6.94705 0.719833ZM2.66404 6.1338C2.36962 5.74497 2.3151 5.22668 2.34163 4.75474C2.35555 4.50752 2.51418 4.12558 2.44597 3.88075C2.44236 3.86768 2.09146 2.56408 2.89218 1.77949C3.77436 0.914974 4.67854 1.22561 4.93236 1.33971L5.44466 2.12501C5.28758 2.44633 4.92913 2.7154 4.5523 2.99824C3.93636 3.46052 3.2383 3.98449 3.35947 4.88955C3.41563 5.3089 3.55874 5.98399 3.72168 6.6865C3.24543 6.61741 2.89035 6.43272 2.66404 6.1338ZM2.80879 16.9351C2.18755 17.1553 1.75949 17.0133 1.72147 16.9066C1.61226 16.6 2.36952 16.264 2.5461 16.2014C2.70266 16.1459 3.80141 15.9468 3.61049 16.3486C3.52438 16.5295 3.24313 16.7811 2.80879 16.9351ZM12.4288 21.5329C12.7011 22.1822 12.8306 22.7776 12.8914 23.1627C12.8941 23.2428 12.8554 23.2875 12.7753 23.2968H3.18374C3.09786 23.2968 3.04166 23.2066 3.07785 23.1291C3.38207 22.4791 3.76438 21.8108 4.2141 21.1428C5.02471 19.9388 5.12835 18.4798 4.99082 17.071C6.12285 17.2221 7.42157 16.7694 8.04979 15.7793C8.25397 15.913 8.53733 16.0711 8.87985 16.1913C9.54969 16.4265 10.5805 16.5602 11.6878 15.8614C12.0714 15.6194 11.6961 15.0247 11.3127 15.2668C9.65629 16.3119 8.22463 15.0441 8.16533 14.9904C7.98702 14.8267 7.69115 14.8941 7.60124 15.1188C7.07826 16.4259 5.07913 16.8601 4.16024 15.7575C3.9538 15.3281 4.17726 14.8288 4.01207 14.4302L3.61382 13.4678C3.44047 13.0487 2.79074 13.3176 2.96418 13.7366L3.32924 14.6189C3.30557 14.9019 3.30786 15.1569 3.3359 15.388C2.66629 15.3318 1.91249 15.5996 1.42537 16.064C1.33944 15.7994 1.24565 15.491 1.16024 15.1676C0.737709 13.5681 0.887006 13.0096 0.970771 12.8437C1.22221 12.3458 2.42183 11.4926 3.38572 10.8071C4.02871 10.3499 4.63602 9.91793 4.98543 9.58465C5.07819 9.49615 5.11541 9.36415 5.0826 9.24021C5.07768 9.2215 4.12002 5.27158 4.05636 4.79618C4.01497 4.48713 4.05613 4.24971 4.97441 3.5605C5.35311 3.27625 5.74152 2.98469 5.9855 2.5976C6.34302 2.79986 6.7198 2.9095 7.11482 3.01061C7.36368 3.07432 7.72911 3.09729 7.85432 3.36644C8.3099 4.34594 8.30844 5.76926 7.8508 6.82769C7.53322 7.56227 6.67565 7.17325 6.15449 6.96424C5.73365 6.7953 5.47185 7.44804 5.89274 7.61683C6.32638 7.79079 6.75547 8.00913 7.23725 7.9684L7.5884 8.87941C7.62983 8.98694 7.72133 9.06733 7.83332 9.09457C7.85155 9.09902 9.49883 9.49769 11.7522 9.86754C11.5666 10.2304 11.5043 10.7402 11.5775 11.3422C11.6679 12.0852 12.0793 13.2488 12.9716 13.3013C12.8143 14.5997 12.5557 16.1505 12.2878 17.7569C12.0702 19.0617 11.8999 20.2713 12.4288 21.5329Z" fill="#000A40"/>
<path d="M10.365 13.9498C9.91256 13.9498 9.91181 14.6529 10.365 14.6529C10.8175 14.6529 10.8182 13.9498 10.365 13.9498Z" fill="#000A40"/>
<path d="M5.12672 14.8409C4.67428 14.8409 4.67353 15.5441 5.12672 15.5441C5.5791 15.5441 5.57985 14.8409 5.12672 14.8409Z" fill="#000A40"/>
</svg>
