<svg width="20" height="20" viewBox="0 0 20 20" fill="none" xmlns="http://www.w3.org/2000/svg">
<g clip-path="url(#clip0_213_137)">
<path d="M18.4851 4.11064L18.485 4.10947C18.4407 2.95459 18.0568 1.8539 17.3747 0.925995C16.9828 0.392819 16.3538 0.0864034 15.6937 0.106125C15.0379 0.125771 14.4334 0.465254 14.0752 1.01474L14.0745 1.01588L14.0745 1.01588L12.7538 2.98279C12.5441 3.29516 12.6273 3.71846 12.9397 3.9282C13.2521 4.13794 13.6753 4.05481 13.8851 3.74234L13.8851 3.74234L15.2088 1.77086L15.209 1.77058L15.2155 1.76077C15.3807 1.50529 15.6349 1.47112 15.7345 1.46815M18.4851 4.11064L15.7345 1.46815M18.4851 4.11064C18.6022 6.44741 17.1328 8.74338 14.9634 9.61938L14.9624 9.61982C13.9752 10.0317 12.9044 10.1604 11.8554 9.99584L11.7993 9.98703L11.763 10.0308C10.443 11.6212 7.82043 10.7087 7.79425 8.61595L7.79314 8.52683L7.70448 8.51772C3.95313 8.13228 1.48506 12.4058 3.72096 15.4634L3.7211 15.4636C3.90388 15.7123 4.16275 15.7316 4.26344 15.7286M18.4851 4.11064L6.15 13.3768L4.78712 15.4288L4.78703 15.429L4.78247 15.4359C4.61724 15.6915 4.36292 15.7256 4.26344 15.7286M15.7345 1.46815C15.7345 1.46815 15.7345 1.46815 15.7344 1.46815L15.7375 1.5681L15.7345 1.46814C15.8352 1.46506 16.0941 1.48448 16.2768 1.73308L16.2769 1.73314C18.4899 4.74919 16.092 9.02154 12.3729 8.68711L12.2827 8.67899L12.2819 8.58837C12.2638 6.48164 9.61972 5.56701 8.3027 7.17622L8.26591 7.22118L8.20863 7.21149C7.1654 7.03503 6.09973 7.14944 5.10887 7.54689L5.10776 7.54734L5.10776 7.54733C2.8998 8.40241 1.39396 10.7216 1.51282 13.0861L1.51288 13.0873C1.55719 14.2422 1.94113 15.3428 2.6232 16.2707L2.62324 16.2708C3.01456 16.804 3.64606 17.1109 4.3041 17.0906L4.30419 17.0906C4.96079 17.0709 5.5659 16.7307 5.92388 16.1801L5.92441 16.1793L7.28504 14.1307C7.49321 13.8173 7.40789 13.3945 7.09446 13.1862C6.78103 12.9781 6.35822 13.0634 6.15 13.3768L15.7345 1.46815ZM4.26344 15.7286L4.26046 15.6286M4.26344 15.7286C4.26345 15.7286 4.26347 15.7286 4.26349 15.7286L4.26046 15.6286M4.26046 15.6286C4.34578 15.6261 4.55931 15.5969 4.69849 15.3816L3.80168 15.4044C3.95614 15.6146 4.17417 15.6312 4.26046 15.6286ZM3.16061 3.37779L3.16052 3.37773C2.90475 3.21239 2.87051 2.95808 2.86754 2.85843L3.16061 3.37779ZM3.16061 3.37779L5.64131 4.97761L5.64131 4.97762M3.16061 3.37779L5.64131 4.97762M5.64131 4.97762C5.95753 5.18153 6.04856 5.60318 5.84464 5.91941L5.84461 5.91946M5.64131 4.97762L5.84461 5.91946M5.84461 5.91946C5.63946 6.23806 5.21443 6.32489 4.9031 6.12285L4.90286 6.1227M5.84461 5.91946L4.90286 6.1227M4.90286 6.1227L2.42146 4.52245L2.42146 4.52244M4.90286 6.1227L2.42146 4.52244M2.42146 4.52244L2.42042 4.52179M2.42146 4.52244L2.42042 4.52179M2.42042 4.52179C1.24888 3.7864 1.20038 2.02171 2.32491 1.21851L2.32491 1.21852M2.42042 4.52179L2.32491 1.21852M2.32491 1.21852L2.326 1.21772M2.32491 1.21852L2.326 1.21772M2.326 1.21772C3.25445 0.535499 4.35576 0.151469 5.51136 0.107151L5.51136 0.107161M2.326 1.21772L5.51136 0.107161M5.51136 0.107161L5.51276 0.107088M5.51136 0.107161L5.51276 0.107088M5.51276 0.107088C8.00662 -0.0236046 10.4279 1.66707 11.1803 4.0468L11.1807 4.04793M5.51276 0.107088L11.1807 4.04793M11.1807 4.04793C11.2984 4.40529 11.1041 4.7904 10.7466 4.90809L10.7779 5.00307M11.1807 4.04793L10.7779 5.00307M10.7779 5.00307L10.7466 4.90809C10.3893 5.02578 10.0041 4.83141 9.88648 4.47404C9.57063 3.51477 8.95402 2.7168 8.10416 2.16752C6.58628 1.18634 4.58884 1.24588 3.13278 2.31577L3.13278 2.31577M10.7779 5.00307L3.13278 2.31577M3.13278 2.31577C2.88389 2.49868 2.86449 2.7574 2.86754 2.85838L3.13278 2.31577ZM9.15679 8.5931L9.1567 8.5931V8.59724C9.1567 9.08327 9.55196 9.47853 10.038 9.47853C10.524 9.47853 10.9193 9.08328 10.9193 8.59724H10.9194L10.9192 8.59312C10.8712 7.42914 9.20501 7.42872 9.15679 8.5931ZM17.5801 12.6739L17.5807 12.6742C18.1319 13.0322 18.4726 13.6378 18.4923 14.2951C18.5121 14.9558 18.2057 15.5844 17.6728 15.9765C16.7451 16.6589 15.6447 17.043 14.4901 17.0873C14.4159 17.0902 14.3416 17.0916 14.2676 17.0916H14.2675C13.0531 17.0937 11.8636 16.7008 10.8785 15.9767L10.7193 15.8597V16.0573V19.2209C10.6817 20.1265 9.39454 20.1265 9.35666 19.2209V14.3374V14.31L9.34272 14.2865C9.14771 13.9569 8.98469 13.6054 8.85615 13.2349L8.76167 13.2677L8.85614 13.2349C8.7328 12.8794 8.92096 12.4913 9.27644 12.368C9.63203 12.2447 10.0202 12.4328 10.1435 12.7883L10.2379 12.7555L10.1435 12.7883C10.4658 13.7174 11.0738 14.4919 11.9008 15.0271C13.4166 16.008 15.4113 15.9484 16.8653 14.8789L16.8061 14.7983L16.8653 14.8789C17.114 14.6959 17.1333 14.4368 17.1303 14.336C17.1273 14.2363 17.0931 13.9817 16.8377 13.8164L16.8363 13.8155L16.8362 13.8155L16.8356 13.8151L16.8331 13.8135L16.8323 13.8129L14.937 12.5649C14.6227 12.358 14.5358 11.9354 14.7427 11.6212L14.7427 11.6212C14.9496 11.3069 15.3721 11.2199 15.6864 11.4269L17.5801 12.6739ZM17.6351 12.5904L15.7414 11.3433C15.381 11.106 14.8965 11.2058 14.6592 11.5662L17.6351 12.5904Z" fill="#000A40" stroke="white" stroke-width="0.2"/>
</g>
<defs>
<clipPath id="clip0_213_137">
<rect width="20" height="20" fill="white"/>
</clipPath>
</defs>
</svg>
