<svg width="20" height="20" viewBox="0 0 20 20" fill="none" xmlns="http://www.w3.org/2000/svg">
<path d="M8.61985 17.4545C8.54719 17.3818 8.44641 17.3404 8.34371 17.3404C8.24098 17.3404 8.1402 17.3818 8.06758 17.4545C7.99492 17.5275 7.95312 17.6279 7.95312 17.731C7.95312 17.8337 7.99492 17.9341 8.06758 18.0071C8.14024 18.0797 8.24102 18.1216 8.34371 18.1216C8.44645 18.1216 8.54723 18.0798 8.61985 18.0071C8.6925 17.9341 8.7343 17.8337 8.7343 17.731C8.7343 17.6279 8.6925 17.5275 8.61985 17.4545Z" fill="#000A40"/>
<path d="M17.8008 0.000732422C17.7312 0.000732422 6.25634 0.000732422 6.25634 0.000732422C5.00563 0.000732422 3.98805 1.01831 3.98805 2.26902V4.37746C3.98805 4.5932 4.16293 4.76805 4.37864 4.76805C4.59438 4.76805 4.76922 4.59316 4.76922 4.37746V2.26906C4.76922 1.44906 5.43637 0.781945 6.25634 0.781945H16.1219C15.798 1.16503 15.6021 1.65972 15.6021 2.19953C15.6021 2.21128 15.6021 17.8004 15.6021 17.8004C15.6021 18.582 14.9662 19.218 14.1845 19.218C13.4029 19.218 12.767 18.582 12.767 17.8004C12.767 17.7902 12.7674 17.7442 12.7674 17.7308C12.7674 17.5151 12.5926 17.3403 12.3769 17.3403H9.97701C9.76127 17.3403 9.58642 17.5152 9.58642 17.7308C9.58642 17.9465 9.7613 18.1214 9.97701 18.1214H12.0095C12.0703 18.5355 12.2471 18.9123 12.5056 19.218H4.37864C3.69379 19.218 3.11555 18.7526 2.94356 18.1214H6.74142C6.95716 18.1214 7.132 17.9465 7.132 17.7308C7.132 17.5152 6.95712 17.3403 6.74142 17.3403H4.76922V15.937C4.76922 15.7213 4.59434 15.5464 4.37864 15.5464C4.16289 15.5464 3.98805 15.7213 3.98805 15.937V17.3403H2.50094C2.2852 17.3403 2.11035 17.5152 2.11035 17.7308C2.11035 18.9816 3.12793 19.9991 4.37864 19.9991H14.1845C15.3969 19.9991 16.3832 19.0128 16.3832 17.8004V5.4293H19.6089C19.8247 5.4293 19.9995 5.25442 19.9995 5.03871V2.19949C19.9996 0.987101 19.0132 0.000732422 17.8008 0.000732422ZM19.2184 4.64812H16.3833C16.3833 4.64812 16.3833 2.21124 16.3833 2.19953C16.3833 1.41788 17.0192 0.781945 17.8009 0.781945C18.5825 0.781945 19.2184 1.41788 19.2184 2.19953V4.64812Z" fill="#000A40"/>
<path d="M8.03735 16.4341L7.27172 15.0933C7.50254 14.4853 8.14375 12.3709 6.89801 10.2114C6.66914 9.81479 6.3834 9.36772 6.04871 8.88268C5.96465 8.76085 5.81883 8.6969 5.67242 8.7178C5.65168 8.72073 5.63144 8.7253 5.61184 8.73136V8.39499C5.61184 8.31171 5.58519 8.23061 5.53586 8.16354C4.64894 6.95807 3.68113 5.82475 2.88058 5.05424C1.75655 3.9724 0.986631 3.60931 0.457684 3.91131C-0.0296212 4.18959 -0.123059 4.90604 0.154754 6.23432C0.347216 7.15448 0.726162 8.36323 1.22183 9.63796C1.26866 9.75839 1.37202 9.84788 1.49788 9.87698L1.61855 9.90487C1.58706 9.93144 1.55956 9.96312 1.53749 9.99913C1.47191 10.106 1.46163 10.2378 1.5098 10.3535C1.89405 11.2766 2.2855 12.0967 2.61214 12.6628C3.68699 14.526 5.88953 15.2493 6.56606 15.4329L7.35903 16.8216C7.43114 16.9478 7.56297 17.0186 7.69856 17.0186C7.76422 17.0186 7.83078 17.002 7.89188 16.9671C8.07914 16.8601 8.1443 16.6214 8.03735 16.4341ZM0.948349 6.2085C0.867099 5.84334 0.822373 5.55815 0.800263 5.33549L3.15433 9.45808L1.87581 9.16249C1.45671 8.06366 1.12905 7.02104 0.948349 6.2085ZM3.28878 12.2724C3.03761 11.837 2.74367 11.2378 2.44363 10.5517L3.72359 10.4549L5.97969 14.4059C5.13758 14.0637 3.94328 13.4069 3.28878 12.2724ZM6.73168 14.1476L4.3416 9.96198C4.32449 9.88354 4.28367 9.81292 4.22574 9.75913L1.42233 4.84943C1.66269 5.01127 1.98874 5.27318 2.4223 5.69803C3.15082 6.41201 4.02418 7.43698 4.83066 8.52362V10.6198C4.83066 10.8113 4.96957 10.9746 5.15859 11.0053C5.34754 11.0361 5.53105 10.9251 5.59172 10.7435L5.84488 9.98534C5.98426 10.2029 6.11008 10.4089 6.22133 10.6018C7.00324 11.9572 6.90945 13.321 6.73168 14.1476Z" fill="#000A40"/>
<path d="M13.2308 4.37738H7.14156C6.92582 4.37738 6.75098 4.55226 6.75098 4.76796C6.75098 4.9837 6.92586 5.15855 7.14156 5.15855H13.2308C13.4465 5.15855 13.6214 4.98367 13.6214 4.76796C13.6214 4.55226 13.4465 4.37738 13.2308 4.37738Z" fill="#000A40"/>
<path d="M13.2308 6.25427H7.14156C6.92582 6.25427 6.75098 6.42916 6.75098 6.64486C6.75098 6.8606 6.92586 7.03545 7.14156 7.03545H13.2308C13.4465 7.03545 13.6214 6.86056 13.6214 6.64486C13.6214 6.42916 13.4465 6.25427 13.2308 6.25427Z" fill="#000A40"/>
<path d="M13.2308 8.13098H7.14156C6.92582 8.13098 6.75098 8.30586 6.75098 8.52157C6.75098 8.73727 6.92586 8.91215 7.14156 8.91215H13.2308C13.4465 8.91215 13.6214 8.73727 13.6214 8.52157C13.6214 8.30586 13.4465 8.13098 13.2308 8.13098Z" fill="#000A40"/>
<path d="M13.2308 10.0078H10.0009C9.7852 10.0078 9.61035 10.1827 9.61035 10.3983C9.61035 10.614 9.78523 10.7889 10.0009 10.7889H13.2308C13.4465 10.7889 13.6214 10.614 13.6214 10.3983C13.6214 10.1827 13.4465 10.0078 13.2308 10.0078Z" fill="#000A40"/>
<path d="M11.4763 2.615C11.4036 2.54235 11.3029 2.50055 11.2002 2.50055C11.097 2.50055 10.9966 2.54235 10.924 2.615C10.8514 2.68766 10.8096 2.78844 10.8096 2.89114C10.8096 2.99387 10.8514 3.09465 10.924 3.16727C10.9967 3.23993 11.0975 3.28172 11.2002 3.28172C11.3029 3.28172 11.4037 3.23993 11.4763 3.16727C11.5489 3.09461 11.5907 2.99383 11.5907 2.89114C11.5907 2.78844 11.5489 2.68766 11.4763 2.615Z" fill="#000A40"/>
<path d="M9.96398 2.50055H7.14156C6.92582 2.50055 6.75098 2.67543 6.75098 2.89114C6.75098 3.10688 6.92586 3.28172 7.14156 3.28172H9.96398C10.1797 3.28172 10.3546 3.10684 10.3546 2.89114C10.3546 2.67543 10.1797 2.50055 9.96398 2.50055Z" fill="#000A40"/>
</svg>
