<svg width="19" height="19" viewBox="0 0 19 19" fill="none" xmlns="http://www.w3.org/2000/svg">
<path d="M13.2648 17.211C13.3421 17.2559 13.4271 17.2558 13.5043 17.2114L13.5044 17.2113L17.4611 14.9339C17.4611 14.9339 17.4611 14.9339 17.4611 14.9339C17.5361 14.8908 17.5785 14.8196 17.5785 14.7324C17.5785 14.6454 17.5361 14.5741 17.4611 14.5309C17.4611 14.5309 17.4611 14.5309 17.4611 14.5309L13.5045 12.2536M13.2648 17.211L13.315 17.1245M13.2648 17.211C13.2649 17.2111 13.2649 17.2111 13.2649 17.2111L13.315 17.1245M13.2648 17.211C13.1904 17.168 13.148 17.0969 13.148 17.0099V12.455C13.148 12.3681 13.1902 12.2969 13.2651 12.2537L13.2652 12.2536C13.301 12.233 13.3413 12.2202 13.3849 12.2202C13.428 12.2202 13.4684 12.2327 13.5045 12.2536M13.315 17.1245C13.3613 17.1513 13.4081 17.1513 13.4545 17.1247L13.315 17.1245ZM13.5045 12.2536L13.4545 12.3402M13.5045 12.2536L13.5044 12.2535L13.4545 12.3402M13.4545 12.3402C13.4314 12.3268 13.4081 12.3202 13.3849 12.3202C13.3615 12.3202 13.3382 12.327 13.315 12.3403L13.4545 12.3402ZM14.145 18.3245L14.145 18.3245C13.9064 18.462 13.6454 18.5302 13.3849 18.5302C13.1233 18.5302 12.8613 18.4614 12.622 18.323C12.1468 18.0482 11.8637 17.5578 11.8637 17.0099V12.455C11.8637 11.907 12.1468 11.4167 12.622 11.1418C13.099 10.866 13.6676 10.8655 14.145 11.1403L14.145 11.1403L18.1018 13.4178C18.5788 13.6923 18.8629 14.1832 18.8629 14.7324C18.8629 15.2816 18.5788 15.7725 18.1018 16.0471L14.145 18.3245ZM9.53711 17.7867H2.96875C1.38696 17.7867 0.1 16.4998 0.1 14.918V3.37695C0.1 1.79517 1.38696 0.508203 2.96875 0.508203H16.0312C17.613 0.508203 18.9 1.79517 18.9 3.37695V10.6875C18.9 11.0422 18.6125 11.3297 18.2578 11.3297C17.9031 11.3297 17.6156 11.0422 17.6156 10.6875V3.37695C17.6156 2.50329 16.9049 1.79258 16.0312 1.79258H2.96875C2.09509 1.79258 1.38437 2.50329 1.38437 3.37695V14.918C1.38437 15.7916 2.09509 16.5023 2.96875 16.5023H9.53711C9.89182 16.5023 10.1793 16.7898 10.1793 17.1445C10.1793 17.4992 9.89182 17.7867 9.53711 17.7867ZM3.59961 13.5336C3.95432 13.5336 4.2418 13.8211 4.2418 14.1758C4.2418 14.5305 3.95432 14.818 3.59961 14.818C3.2449 14.818 2.95742 14.5305 2.95742 14.1758C2.95742 13.8211 3.2449 13.5336 3.59961 13.5336ZM6.56836 13.5336C6.92307 13.5336 7.21055 13.8211 7.21055 14.1758C7.21055 14.5305 6.92307 14.818 6.56836 14.818C6.21365 14.818 5.92617 14.5305 5.92617 14.1758C5.92617 13.8211 6.21365 13.5336 6.56836 13.5336ZM9.53711 13.5336C9.89182 13.5336 10.1793 13.8211 10.1793 14.1758C10.1793 14.5305 9.89182 14.818 9.53711 14.818C9.18239 14.818 8.89492 14.5305 8.89492 14.1758C8.89492 13.8211 9.18239 13.5336 9.53711 13.5336ZM3.59961 3.47695C3.95432 3.47695 4.2418 3.76443 4.2418 4.11914C4.2418 4.47385 3.95432 4.76133 3.59961 4.76133C3.2449 4.76133 2.95742 4.47385 2.95742 4.11914C2.95742 3.76443 3.2449 3.47695 3.59961 3.47695ZM6.56836 3.47695C6.92307 3.47695 7.21055 3.76443 7.21055 4.11914C7.21055 4.47385 6.92307 4.76133 6.56836 4.76133C6.21365 4.76133 5.92617 4.47385 5.92617 4.11914C5.92617 3.76443 6.21365 3.47695 6.56836 3.47695ZM9.53711 3.47695C9.89182 3.47695 10.1793 3.76443 10.1793 4.11914C10.1793 4.47385 9.89182 4.76133 9.53711 4.76133C9.18239 4.76133 8.89492 4.47385 8.89492 4.11914C8.89492 3.76443 9.18239 3.47695 9.53711 3.47695ZM12.5059 3.47695C12.8606 3.47695 13.148 3.76443 13.148 4.11914C13.148 4.47385 12.8606 4.76133 12.5059 4.76133C12.1511 4.76133 11.8637 4.47385 11.8637 4.11914C11.8637 3.76443 12.1511 3.47695 12.5059 3.47695ZM15.4746 3.47695C15.8293 3.47695 16.1168 3.76443 16.1168 4.11914C16.1168 4.47385 15.8293 4.76133 15.4746 4.76133C15.1199 4.76133 14.8324 4.47385 14.8324 4.11914C14.8324 3.76443 15.1199 3.47695 15.4746 3.47695Z" fill="#000A40" stroke="white" stroke-width="0.2"/>
</svg>
