<svg width="25" height="25" viewBox="0 0 25 25" fill="none" xmlns="http://www.w3.org/2000/svg">
<path d="M3.95592 18.378L11.8726 22.9693C12.0631 23.0797 12.2794 23.1379 12.4997 23.1379C12.7199 23.1379 12.9362 23.0797 13.1268 22.9693L21.0434 18.3776C21.2326 18.2675 21.3897 18.1098 21.499 17.9202C21.6083 17.7306 21.666 17.5156 21.6663 17.2968V7.70342C21.666 7.48449 21.6083 7.26946 21.499 7.07976C21.3897 6.89006 21.2326 6.73229 21.0434 6.62217L13.1268 2.03092C12.9362 1.92043 12.7199 1.86224 12.4997 1.86224C12.2794 1.86224 12.0631 1.92043 11.8726 2.03092L3.95592 6.62258C3.76674 6.73264 3.60968 6.89033 3.50039 7.07996C3.3911 7.26959 3.33339 7.48455 3.33301 7.70342V17.2968C3.33336 17.5157 3.39105 17.7307 3.50034 17.9204C3.60963 18.1101 3.7667 18.2679 3.95592 18.378ZM4.24342 17.5326L8.94634 13.4168C9.00706 13.3638 9.08492 13.3346 9.16551 13.3346C9.2461 13.3346 9.32396 13.3638 9.38468 13.4168L12.5263 16.2209L8.37467 19.978L4.37467 17.6572C4.3221 17.6261 4.27723 17.5835 4.24342 17.5326ZM20.6251 17.6576L12.708 22.2501C12.6447 22.2867 12.5728 22.3059 12.4997 22.3059C12.4265 22.3059 12.3547 22.2867 12.2913 22.2501L9.13217 20.4167L16.863 13.4168C16.9239 13.3629 17.0025 13.3331 17.0838 13.3331C17.1652 13.3331 17.2437 13.3629 17.3047 13.4168L20.833 16.5059V17.2976C20.8328 17.3705 20.8134 17.4421 20.7769 17.5052C20.7403 17.5683 20.6878 17.6207 20.6247 17.6572L20.6251 17.6576ZM4.37509 7.34342L12.2913 2.75008C12.3547 2.71351 12.4265 2.69426 12.4997 2.69426C12.5728 2.69426 12.6447 2.71351 12.708 2.75008L20.6247 7.34133C20.688 7.37787 20.7405 7.4304 20.7771 7.49366C20.8136 7.55692 20.8329 7.62868 20.833 7.70175V15.3984L17.8551 12.7918C17.6408 12.6042 17.3654 12.5011 17.0806 12.5018C16.7958 12.5025 16.521 12.6069 16.3076 12.7955L13.148 15.6568L9.93968 12.7918C9.72638 12.6048 9.45244 12.5018 9.16884 12.5018C8.88524 12.5018 8.6113 12.6048 8.39801 12.7918L4.16634 16.4926V7.70342C4.16642 7.63035 4.1857 7.55859 4.22227 7.49533C4.25884 7.43207 4.3114 7.37953 4.37467 7.343L4.37509 7.34342Z" fill="#000A40"/>
<path d="M7.08236 11.6667C7.4944 11.6667 7.89719 11.5445 8.23979 11.3156C8.5824 11.0866 8.84942 10.7613 9.00711 10.3806C9.16479 9.99991 9.20605 9.58102 9.12566 9.1769C9.04527 8.77277 8.84686 8.40156 8.5555 8.1102C8.26414 7.81884 7.89292 7.62042 7.4888 7.54003C7.08467 7.45965 6.66578 7.5009 6.2851 7.65859C5.90442 7.81627 5.57905 8.08329 5.35013 8.4259C5.12121 8.7685 4.99902 9.17129 4.99902 9.58334C4.99969 10.1357 5.21939 10.6652 5.60995 11.0557C6.00051 11.4463 6.53003 11.666 7.08236 11.6667ZM7.08236 8.33333C7.32958 8.33333 7.57126 8.40665 7.77682 8.544C7.98238 8.68135 8.1426 8.87657 8.23721 9.10498C8.33182 9.33339 8.35657 9.58472 8.30834 9.8272C8.26011 10.0697 8.14106 10.2924 7.96624 10.4672C7.79142 10.642 7.5687 10.7611 7.32622 10.8093C7.08374 10.8575 6.83241 10.8328 6.604 10.7382C6.37559 10.6436 6.18037 10.4834 6.04302 10.2778C5.90567 10.0722 5.83236 9.83056 5.83236 9.58334C5.83236 9.25181 5.96405 8.93387 6.19847 8.69945C6.43289 8.46503 6.75084 8.33333 7.08236 8.33333Z" fill="#000A40"/>
<path d="M10.8335 8.75001H13.5419C13.9286 8.75001 14.2996 8.59636 14.573 8.32287C14.8465 8.04938 15.0002 7.67845 15.0002 7.29168C15.0002 6.9049 14.8465 6.53397 14.573 6.26048C14.2996 5.98699 13.9286 5.83335 13.5419 5.83335H13.5256C13.3806 5.57914 13.1707 5.36802 12.9173 5.2216C12.6639 5.07518 12.3762 4.99871 12.0835 5.00002C11.7039 5.00057 11.3357 5.13047 11.0398 5.36831C10.7439 5.60614 10.5378 5.9377 10.4556 6.30835C10.1711 6.39846 9.92816 6.58742 9.77081 6.84105C9.61346 7.09468 9.55207 7.39624 9.59772 7.6912C9.64337 7.98617 9.79306 8.25506 10.0197 8.44925C10.2464 8.64345 10.5351 8.75013 10.8335 8.75001ZM10.8335 7.08334C10.944 7.08334 11.05 7.03945 11.1282 6.96131C11.2063 6.88317 11.2502 6.77719 11.2502 6.66668C11.2502 6.44567 11.338 6.2337 11.4943 6.07742C11.6505 5.92114 11.8625 5.83335 12.0835 5.83335C12.26 5.83191 12.4323 5.88734 12.5749 5.99142C12.7175 6.0955 12.8228 6.2427 12.8752 6.41126C12.9075 6.51507 12.9791 6.60215 13.0746 6.65391C13.1702 6.70568 13.2823 6.71804 13.3869 6.68835C13.4373 6.67419 13.4894 6.66691 13.5419 6.66668C13.7076 6.66668 13.8666 6.73253 13.9838 6.84974C14.101 6.96695 14.1669 7.12592 14.1669 7.29168C14.1669 7.45744 14.101 7.61641 13.9838 7.73362C13.8666 7.85083 13.7076 7.91667 13.5419 7.91667H10.8335C10.723 7.91667 10.617 7.87278 10.5389 7.79464C10.4608 7.7165 10.4169 7.61052 10.4169 7.50001C10.4169 7.3895 10.4608 7.28352 10.5389 7.20538C10.617 7.12724 10.723 7.08334 10.8335 7.08334Z" fill="#000A40"/>
<path d="M14.583 10.0001C14.583 10.3316 14.7147 10.6495 14.9491 10.884C15.1835 11.1184 15.5015 11.2501 15.833 11.2501H18.5413C18.9281 11.2501 19.299 11.0964 19.5725 10.8229C19.846 10.5494 19.9997 10.1785 19.9997 9.79174C19.9997 9.40496 19.846 9.03403 19.5725 8.76054C19.299 8.48705 18.9281 8.33341 18.5413 8.33341H18.5251C18.3801 8.0792 18.1702 7.86809 17.9168 7.72166C17.6634 7.57524 17.3756 7.49877 17.083 7.50008C16.7034 7.50063 16.3352 7.63054 16.0393 7.86837C15.7434 8.1062 15.5373 8.43776 15.4551 8.80841C15.2022 8.88902 14.9815 9.04787 14.8248 9.26205C14.668 9.47623 14.5834 9.73466 14.583 10.0001ZM15.833 9.58341C15.9435 9.58341 16.0495 9.53951 16.1276 9.46137C16.2058 9.38323 16.2497 9.27725 16.2497 9.16674C16.2497 8.94573 16.3375 8.73377 16.4937 8.57749C16.65 8.42121 16.862 8.33341 17.083 8.33341C17.2595 8.33198 17.4318 8.3874 17.5744 8.49148C17.717 8.59556 17.8222 8.74276 17.8747 8.91132C17.907 9.01513 17.9785 9.10221 18.0741 9.15397C18.1697 9.20574 18.2818 9.2181 18.3863 9.18841C18.4368 9.17425 18.4889 9.16697 18.5413 9.16674C18.7071 9.16674 18.8661 9.23259 18.9833 9.3498C19.1005 9.46701 19.1663 9.62598 19.1663 9.79174C19.1663 9.9575 19.1005 10.1165 18.9833 10.2337C18.8661 10.3509 18.7071 10.4167 18.5413 10.4167H15.833C15.7225 10.4167 15.6165 10.3728 15.5384 10.2947C15.4602 10.2166 15.4163 10.1106 15.4163 10.0001C15.4163 9.88956 15.4602 9.78358 15.5384 9.70544C15.6165 9.6273 15.7225 9.58341 15.833 9.58341Z" fill="#000A40"/>
</svg>
