<svg width="36" height="36" viewBox="0 0 36 36" fill="none" xmlns="http://www.w3.org/2000/svg">
<path d="M31.5 27V22.5C31.5 22.2016 31.3815 21.9155 31.1705 21.7045C30.9595 21.4935 30.6734 21.375 30.375 21.375C30.0766 21.375 29.7905 21.4935 29.5795 21.7045C29.3685 21.9155 29.25 22.2016 29.25 22.5V27C29.25 27.2984 29.1315 27.5845 28.9205 27.7955C28.7095 28.0065 28.4234 28.125 28.125 28.125H7.875C7.57663 28.125 7.29048 28.0065 7.0795 27.7955C6.86853 27.5845 6.75 27.2984 6.75 27V22.5C6.75 22.2016 6.63147 21.9155 6.42049 21.7045C6.20952 21.4935 5.92337 21.375 5.625 21.375C5.32663 21.375 5.04048 21.4935 4.82951 21.7045C4.61853 21.9155 4.5 22.2016 4.5 22.5V27C4.5 27.8951 4.85558 28.7536 5.48851 29.3865C6.12145 30.0194 6.97989 30.375 7.875 30.375H28.125C29.0201 30.375 29.8786 30.0194 30.5115 29.3865C31.1444 28.7536 31.5 27.8951 31.5 27ZM24.3225 21.1275L18.6975 25.6275C18.4989 25.7844 18.2531 25.8698 18 25.8698C17.7469 25.8698 17.5011 25.7844 17.3025 25.6275L11.6775 21.1275C11.4725 20.934 11.3477 20.6707 11.3276 20.3896C11.3075 20.1084 11.3937 19.83 11.5691 19.6094C11.7444 19.3887 11.9962 19.242 12.2746 19.1981C12.553 19.1542 12.8378 19.2165 13.0725 19.3725L16.875 22.41V6.75C16.875 6.45163 16.9935 6.16548 17.2045 5.95451C17.4155 5.74353 17.7016 5.625 18 5.625C18.2984 5.625 18.5845 5.74353 18.7955 5.95451C19.0065 6.16548 19.125 6.45163 19.125 6.75V22.41L22.9275 19.3725C23.0408 19.2656 23.175 19.1833 23.3218 19.131C23.4685 19.0787 23.6245 19.0574 23.7799 19.0685C23.9353 19.0796 24.0867 19.1228 24.2245 19.1955C24.3623 19.2681 24.4835 19.3686 24.5804 19.4906C24.6773 19.6125 24.7479 19.7533 24.7876 19.9039C24.8273 20.0546 24.8353 20.2118 24.811 20.3657C24.7868 20.5196 24.7308 20.6667 24.6467 20.7979C24.5626 20.929 24.4522 21.0413 24.3225 21.1275Z" fill="white"/>
</svg>
