<svg width="1208" height="849" viewBox="0 0 1208 849" fill="none" xmlns="http://www.w3.org/2000/svg">
<g filter="url(#filter0_i_11_15)">
<path d="M148 103C148 46.1147 194.562 2.40364e-06 252 7.06588e-06C309.438 1.17281e-05 356 46.1147 356 103C356 159.885 309.438 206 252 206C194.562 206 148 159.885 148 103Z" fill="url(#paint0_radial_11_15)"/>
</g>
<path fill-rule="evenodd" clip-rule="evenodd" d="M129.471 189.656C126.061 184.399 117.526 185.37 116.045 191.462C113.091 203.617 110.134 216.508 107.034 230.022C91.5139 297.679 72.4122 380.948 32.1843 465.672C28.6137 472.174 25.2917 478.928 22.2697 485.786C22.1942 486.006 22.0924 486.172 21.9632 486.382C21.916 486.459 21.8651 486.542 21.8105 486.636C7.97947 518.172 0.238693 552.979 0.00588759 589.611C-0.938029 732.019 111.777 848.15 251.776 848.994C391.825 849.939 506.037 735.223 506.981 592.816C507.391 558.848 501.064 526.429 489.546 496.678C489.429 496.439 489.354 496.182 489.279 495.925C489.224 495.741 489.17 495.557 489.101 495.379C485.336 485.723 480.992 476.352 476.118 467.362C425.293 354.461 407.242 274.094 393.969 214.997C392.099 206.671 390.324 198.768 388.565 191.255C387.132 185.132 378.581 184.147 375.171 189.427C349.265 229.538 303.891 256.129 252.247 256.129C200.701 256.129 155.402 229.64 129.471 189.656Z" fill="url(#paint1_radial_11_15)"/>
<g filter="url(#filter1_i_11_15)">
<path d="M399 590.5C399 671.41 333.41 737 252.5 737C171.59 737 106 671.41 106 590.5C106 509.59 171.59 444 252.5 444C333.41 444 399 509.59 399 590.5Z" fill="url(#paint2_radial_11_15)"/>
</g>
<path d="M356 590C356 646.885 309.885 693 253 693C196.115 693 150 646.885 150 590C150 533.115 196.115 487 253 487C309.885 487 356 533.115 356 590Z" fill="url(#paint3_radial_11_15)"/>
<path fill-rule="evenodd" clip-rule="evenodd" d="M357 590C357 647.438 310.438 694 253 694C195.562 694 149 647.438 149 590C149 532.562 195.562 486 253 486C310.438 486 357 532.562 357 590ZM253 692.876C309.817 692.876 355.876 646.817 355.876 590C355.876 533.183 309.817 487.124 253 487.124C196.183 487.124 150.124 533.183 150.124 590C150.124 646.817 196.183 692.876 253 692.876Z" fill="black"/>
<path d="M201.184 541.852C194.862 550.791 195.522 561.996 202.613 566.834C209.703 571.672 220.528 568.322 226.851 559.384C233.173 550.446 232.513 539.24 225.423 534.403C218.332 529.565 207.515 532.856 201.184 541.852Z" fill="white"/>
<path d="M977.657 198.829L883.424 412.171H861.234L767 198.829H791.318L872.785 384.132L954.859 198.829H977.657Z" fill="#568617"/>
<path d="M1096.44 414C1075.36 414 1056.21 409.327 1038.99 399.98C1021.96 390.431 1008.59 377.427 998.862 360.969C989.338 344.511 984.575 326.022 984.575 305.5C984.575 284.978 989.338 266.489 998.862 250.031C1008.59 233.573 1021.96 220.671 1038.99 211.324C1056.21 201.775 1075.36 197 1096.44 197C1117.52 197 1136.46 201.673 1153.28 211.02C1170.31 220.366 1183.68 233.37 1193.41 250.031C1203.14 266.489 1208 284.978 1208 305.5C1208 326.022 1203.14 344.613 1193.41 361.274C1183.68 377.732 1170.31 390.634 1153.28 399.98C1136.46 409.327 1117.52 414 1096.44 414ZM1096.44 393.885C1113.26 393.885 1128.46 390.126 1142.04 382.608C1155.61 374.887 1166.25 364.322 1173.95 350.912C1181.66 337.298 1185.51 322.161 1185.51 305.5C1185.51 288.839 1181.66 273.803 1173.95 260.393C1166.25 246.78 1155.61 236.214 1142.04 228.697C1128.46 220.976 1113.26 217.115 1096.44 217.115C1079.62 217.115 1064.32 220.976 1050.54 228.697C1036.96 236.214 1026.22 246.78 1018.32 260.393C1010.62 273.803 1006.77 288.839 1006.77 305.5C1006.77 322.161 1010.62 337.298 1018.32 350.912C1026.22 364.322 1036.96 374.887 1050.54 382.608C1064.32 390.126 1079.62 393.885 1096.44 393.885Z" fill="#568617"/>
<path d="M1128 303C1128 320.121 1114.34 334 1097.5 334C1080.66 334 1067 320.121 1067 303C1067 285.879 1080.66 272 1097.5 272C1114.34 272 1128 285.879 1128 303Z" fill="url(#paint4_radial_11_15)"/>
<path fill-rule="evenodd" clip-rule="evenodd" d="M1130 303C1130 320.673 1115.67 335 1098 335C1080.33 335 1066 320.673 1066 303C1066 285.327 1080.33 271 1098 271C1115.67 271 1130 285.327 1130 303ZM1098 333.877C1115.05 333.877 1128.88 320.053 1128.88 303C1128.88 285.947 1115.05 272.123 1098 272.123C1080.95 272.123 1067.12 285.947 1067.12 303C1067.12 320.053 1080.95 333.877 1098 333.877Z" fill="black"/>
<path d="M755.696 361.099H637L611.435 418H588L685.391 205H707.609L805 418H781.261L755.696 361.099ZM747.478 342.841L696.348 228.43L645.217 342.841H747.478Z" fill="#568617"/>
<path d="M790.851 492V705H772.306L635.497 532.166V705H613V492H631.545L768.658 664.834V492H790.851Z" fill="#37241C"/>
<path d="M864.568 511.474V595.153H974.623V614.627H864.568V705H842.071V492H988V511.474H864.568Z" fill="#37241C"/>
<path d="M1100.19 509.474H1025V490H1198V509.474H1122.81V703H1100.19V509.474Z" fill="#37241C"/>
<defs>
<filter id="filter0_i_11_15" x="148" y="0" width="208" height="210" filterUnits="userSpaceOnUse" color-interpolation-filters="sRGB">
<feFlood flood-opacity="0" result="BackgroundImageFix"/>
<feBlend mode="normal" in="SourceGraphic" in2="BackgroundImageFix" result="shape"/>
<feColorMatrix in="SourceAlpha" type="matrix" values="0 0 0 0 0 0 0 0 0 0 0 0 0 0 0 0 0 0 127 0" result="hardAlpha"/>
<feOffset dy="4"/>
<feGaussianBlur stdDeviation="27.5"/>
<feComposite in2="hardAlpha" operator="arithmetic" k2="-1" k3="1"/>
<feColorMatrix type="matrix" values="0 0 0 0 0.607843 0 0 0 0 0.772549 0 0 0 0 0.396078 0 0 0 1 0"/>
<feBlend mode="normal" in2="shape" result="effect1_innerShadow_11_15"/>
</filter>
<filter id="filter1_i_11_15" x="106" y="444" width="293" height="297" filterUnits="userSpaceOnUse" color-interpolation-filters="sRGB">
<feFlood flood-opacity="0" result="BackgroundImageFix"/>
<feBlend mode="normal" in="SourceGraphic" in2="BackgroundImageFix" result="shape"/>
<feColorMatrix in="SourceAlpha" type="matrix" values="0 0 0 0 0 0 0 0 0 0 0 0 0 0 0 0 0 0 127 0" result="hardAlpha"/>
<feOffset dy="4"/>
<feGaussianBlur stdDeviation="27.5"/>
<feComposite in2="hardAlpha" operator="arithmetic" k2="-1" k3="1"/>
<feColorMatrix type="matrix" values="0 0 0 0 0.607843 0 0 0 0 0.772549 0 0 0 0 0.396078 0 0 0 1 0"/>
<feBlend mode="normal" in2="shape" result="effect1_innerShadow_11_15"/>
</filter>
<radialGradient id="paint0_radial_11_15" cx="0" cy="0" r="1" gradientUnits="userSpaceOnUse" gradientTransform="translate(245.137 99.8429) rotate(-175.054) scale(244.083 260.361)">
<stop offset="0.13486" stop-color="#F7EF7C"/>
<stop offset="0.9628" stop-color="#A4C967"/>
<stop offset="1" stop-color="#9BC565"/>
</radialGradient>
<radialGradient id="paint1_radial_11_15" cx="0" cy="0" r="1" gradientUnits="userSpaceOnUse" gradientTransform="translate(253.368 572.49) scale(283.903 399.733)">
<stop offset="0.280643" stop-color="#F7EF7C"/>
<stop offset="0.585254" stop-color="#EFEB7A"/>
<stop offset="0.881033" stop-color="#BCD46D"/>
<stop offset="0.9628" stop-color="#A4C967"/>
<stop offset="1" stop-color="#9BC565"/>
</radialGradient>
<radialGradient id="paint2_radial_11_15" cx="0" cy="0" r="1" gradientUnits="userSpaceOnUse" gradientTransform="translate(262.167 594.99) rotate(-3.20781) scale(892.747 961.482)">
<stop stop-color="#F7EF7C"/>
<stop stop-color="#D2DE72"/>
<stop stop-color="#BCD46D"/>
<stop offset="0.9628" stop-color="#A4C967"/>
<stop offset="1" stop-color="#9BC565"/>
</radialGradient>
<radialGradient id="paint3_radial_11_15" cx="0" cy="0" r="1" gradientUnits="userSpaceOnUse" gradientTransform="translate(241.72 573.935) rotate(23.0733) scale(77.0203 100.312)">
<stop stop-color="#D47863"/>
<stop offset="0.159" stop-color="#CC7460"/>
<stop offset="0.3243" stop-color="#B96C5A"/>
<stop offset="0.4925" stop-color="#9E5F50"/>
<stop offset="0.6627" stop-color="#7D4F43"/>
<stop offset="0.8327" stop-color="#593B32"/>
<stop offset="1" stop-color="#37241C"/>
</radialGradient>
<radialGradient id="paint4_radial_11_15" cx="0" cy="0" r="1" gradientUnits="userSpaceOnUse" gradientTransform="translate(1094.16 298.165) rotate(23.4111) scale(22.8648 30.1146)">
<stop stop-color="#9E5F50"/>
<stop offset="0.6627" stop-color="#7D4F43"/>
<stop offset="0.8327" stop-color="#593B32"/>
<stop offset="1" stop-color="#37241C"/>
</radialGradient>
</defs>
</svg>
