<svg width="121" height="29" viewBox="0 0 121 29" fill="none" xmlns="http://www.w3.org/2000/svg">
<path d="M15.6074 28V26.6992C16.6035 26.6172 17.418 26.4883 18.0508 26.3125C18.6836 26.125 19 25.9199 19 25.6973C19 25.5801 18.9824 25.4512 18.9473 25.3105C18.9121 25.1582 18.1738 23.2246 16.7324 19.5098H8.04883C7.58008 20.6582 7.16992 21.7773 6.81836 22.8672C6.4668 23.9453 6.29102 24.707 6.29102 25.1523C6.29102 25.5508 6.60742 25.8848 7.24023 26.1543C7.87305 26.4238 8.78125 26.6055 9.96484 26.6992V28H0.138672V26.6992C1.20508 26.6172 2.08398 26.3418 2.77539 25.873C3.47852 25.4043 4.04102 24.6484 4.46289 23.6055L12.8477 2.6875H15.3262C16.8848 6.55469 19.2578 12.584 22.4453 20.7754L23.8164 24.2559C24.1094 24.959 24.5371 25.5156 25.0996 25.9258C25.6738 26.3242 26.5234 26.582 27.6484 26.6992V28H15.6074ZM12.3379 8.52344L8.69922 17.8926H16.0469L12.3379 8.52344ZM46.412 11.793C45.0878 12.0391 44.1679 12.7363 43.6523 13.8848L42.5273 16.3984C41.2734 19.1289 40.1249 21.7129 39.082 24.1504C38.496 25.4043 37.9862 26.7344 37.5527 28.1406H35.2148L34.0019 25.1875C33.2284 23.3359 31.5585 19.5098 28.9921 13.709C28.7812 13.2168 28.4237 12.8008 27.9198 12.4609C27.4159 12.1211 26.871 11.9102 26.2851 11.8281V10.6504H35.6894V11.8633C35.1152 11.8984 34.6112 11.9922 34.1777 12.1445C33.7441 12.2969 33.5273 12.4844 33.5273 12.707L33.7734 13.498L37.9218 23.1836L41.5956 14.5703C41.83 13.9727 41.9472 13.5039 41.9472 13.1641C41.9472 12.8828 41.7128 12.6191 41.2441 12.373C40.787 12.127 40.1952 11.9453 39.4687 11.8281V10.6504H46.412V11.793ZM66.7928 19.1758C66.7928 20.9922 66.4061 22.6152 65.6327 24.0449C64.8592 25.4746 63.7518 26.5879 62.3104 27.3848C60.869 28.1816 59.2108 28.5801 57.3358 28.5801C55.6131 28.5801 54.0487 28.1934 52.6424 27.4199C51.2362 26.6465 50.1346 25.5625 49.3377 24.168C48.5526 22.7617 48.16 21.1562 48.16 19.3516C48.16 16.6094 49.0096 14.3828 50.7088 12.6719C52.408 10.9609 54.6756 10.1055 57.5116 10.1055C59.3514 10.1055 60.9745 10.4805 62.3807 11.2305C63.7987 11.9805 64.8885 13.0586 65.6502 14.4648C66.412 15.8594 66.7928 17.4297 66.7928 19.1758ZM61.8006 19.1758C61.8006 16.6328 61.4315 14.7227 60.6932 13.4453C59.9549 12.1562 58.8944 11.5117 57.5116 11.5117C56.0936 11.5117 55.0155 12.1562 54.2772 13.4453C53.5506 14.7227 53.1873 16.6094 53.1873 19.1055C53.1873 21.7422 53.5506 23.7461 54.2772 25.1172C55.0155 26.4883 56.0936 27.1738 57.5116 27.1738C58.8944 27.1738 59.9549 26.4824 60.6932 25.0996C61.4315 23.7051 61.8006 21.7305 61.8006 19.1758ZM81.9177 28V26.7695L82.7791 26.6992C83.3533 26.6523 83.7517 26.4883 83.9744 26.207C84.2087 25.9258 84.3259 25.5039 84.3259 24.9414V16.3633C84.3259 15.1211 84.074 14.1895 83.5701 13.5684C83.0662 12.9473 82.3982 12.6367 81.5662 12.6367C80.7224 12.6367 79.9138 12.8594 79.1404 13.3047C78.3787 13.75 77.7927 14.3301 77.3826 15.0449V24.7656C77.3826 25.5273 77.6697 26.0664 78.2439 26.3828C78.6658 26.5586 79.2048 26.6875 79.8611 26.7695V28H70.2459V26.7695C71.1834 26.7109 71.7927 26.623 72.074 26.5059C72.3552 26.377 72.5603 26.1777 72.6892 25.9082C72.8181 25.627 72.8826 25.3047 72.8826 24.9414V14.4648C72.8826 14.0898 72.783 13.7266 72.5837 13.375C72.3962 13.0234 72.1619 12.7363 71.8806 12.5137C71.447 12.2676 70.8318 12.1152 70.0349 12.0566V10.8262L77.1365 10.4395L77.3826 10.6855V13.1641H77.4529L78.5779 12.1094C79.9724 10.7969 81.6482 10.1406 83.6052 10.1406C85.3045 10.1406 86.6111 10.6387 87.5252 11.6348C88.4392 12.6309 88.8962 14.0781 88.8962 15.9766V24.8008C88.8962 25.4102 89.0779 25.8672 89.4412 26.1719C89.8045 26.4648 90.4783 26.6641 91.4627 26.7695V28H81.9177ZM109.189 3.33789C109.189 4.0293 108.99 4.58594 108.591 5.00781C108.193 5.42969 107.636 5.64062 106.922 5.64062C106.476 5.64062 106.095 5.55859 105.779 5.39453C105.474 5.23047 105.193 5.00195 104.935 4.70898C104.689 4.4043 104.455 4.04687 104.232 3.63672C104.021 3.22656 103.793 2.78125 103.547 2.30078C102.808 2.51172 102.287 3.17383 101.982 4.28711C101.677 5.38867 101.525 6.99414 101.525 9.10352V10.7207H106.201V12.4785H101.56V24.7656C101.56 25.3164 101.736 25.7441 102.088 26.0488C102.439 26.3535 102.99 26.5469 103.74 26.6289L104.953 26.7695V28H94.4411V26.7695C95.4489 26.7227 96.1286 26.5645 96.4802 26.2949C96.8434 26.0254 97.0251 25.5742 97.0251 24.9414V12.4785H93.527V10.7207H97.0251V10.3516C97.0251 7.48047 97.7751 5.17187 99.2751 3.42578C100.787 1.66797 102.797 0.789062 105.304 0.789062C106.535 0.789062 107.49 1.02344 108.17 1.49219C108.849 1.94922 109.189 2.56445 109.189 3.33789ZM120.324 27.2441C118.461 28.041 116.761 28.4395 115.226 28.4395C112.097 28.4395 110.533 26.875 110.533 23.7461V12.4785H107.404V10.7207H110.603V5.35938H115.068V10.7207H120.007V12.4785H115.103V21.9531C115.103 23.1719 115.185 24.0449 115.349 24.5723C115.513 25.0879 115.789 25.4688 116.175 25.7148C116.562 25.9609 117.107 26.084 117.81 26.084C118.209 26.084 118.666 26.0605 119.181 26.0137C119.697 25.9551 120.078 25.8965 120.324 25.8379V27.2441Z" fill="#B2D244"/>
</svg>
