<svg width="22" height="22" viewBox="0 0 22 22" fill="none" xmlns="http://www.w3.org/2000/svg">
<path d="M9.28569 21.5364C9.80638 21.8393 10.398 21.9989 11.0004 21.9989C11.6028 21.9989 12.1944 21.8393 12.7151 21.5364L19.1978 17.7598C19.7155 17.4561 20.1449 17.0225 20.4436 16.5019C20.7422 15.9813 20.8998 15.3918 20.9006 14.7916V7.2082C20.9001 6.60771 20.7427 6.01778 20.444 5.49684C20.1453 4.97589 19.7157 4.54202 19.1978 4.2382L12.7155 0.463368C12.1947 0.160748 11.6031 0.00134277 11.0008 0.00134277C10.3984 0.00134277 9.80684 0.160748 9.28605 0.463368L2.80302 4.23967C2.28535 4.54341 1.85596 4.97707 1.55737 5.49773C1.25877 6.01839 1.10132 6.608 1.10059 7.2082V14.7916C1.1011 15.3921 1.25849 15.982 1.55716 16.503C1.85584 17.0239 2.28543 17.4578 2.80339 17.7616L9.28569 21.5364ZM1.83392 14.7916V7.2082C1.83428 6.73619 1.95792 6.27246 2.1926 5.86292C2.42727 5.45339 2.76484 5.11224 3.17189 4.87327L9.65529 1.0966C10.0639 0.859011 10.5281 0.733853 11.0008 0.733853C11.4734 0.733853 11.9377 0.859011 12.3463 1.0966L18.8289 4.87327C19.2361 5.11217 19.5737 5.45329 19.8085 5.86283C20.0432 6.27238 20.1669 6.73615 20.1673 7.2082V14.7916C20.1669 15.2636 20.0433 15.7274 19.8086 16.1369C19.5739 16.5464 19.2364 16.8876 18.8293 17.1265L12.3459 20.9032C11.9372 21.1406 11.473 21.2657 11.0004 21.2657C10.5278 21.2657 10.0636 21.1406 9.65492 20.9032L3.17189 17.1265C2.76482 16.8876 2.42723 16.5464 2.19255 16.1369C1.95787 15.7274 1.83425 15.2636 1.83392 14.7916Z" fill="#000A40"/>
<path d="M10.0237 20.2693C10.3199 20.4422 10.6567 20.5333 10.9997 20.5333C11.3427 20.5333 11.6796 20.4422 11.9758 20.2693L18.4592 16.4926C18.7556 16.3184 19.0013 16.0699 19.1721 15.7715C19.343 15.4732 19.4329 15.1354 19.4331 14.7917V7.20826C19.433 6.86438 19.343 6.52649 19.1721 6.22808C19.0012 5.92966 18.7554 5.68107 18.4588 5.50692L11.9758 1.73062C11.6785 1.56085 11.3421 1.47156 10.9997 1.47156C10.6574 1.47156 10.321 1.56085 10.0237 1.73062L3.54101 5.50729C3.24449 5.68138 2.99859 5.92991 2.82765 6.22825C2.65671 6.52659 2.56665 6.86441 2.56641 7.20826V14.7917C2.56652 15.1355 2.65647 15.4734 2.82735 15.7718C2.99823 16.0703 3.24411 16.3188 3.54064 16.493L10.0237 20.2693ZM3.29974 7.20826C3.29967 6.99257 3.35592 6.78059 3.46293 6.59332C3.56995 6.40605 3.72401 6.24997 3.90987 6.14052L10.3925 2.36386C10.5768 2.25629 10.7864 2.19961 10.9997 2.19961C11.2131 2.19961 11.4227 2.25629 11.6069 2.36386L18.0896 6.14052C18.2755 6.24997 18.4295 6.40605 18.5365 6.59332C18.6436 6.78059 18.6998 6.99257 18.6997 7.20826V14.7917C18.6998 15.0073 18.6436 15.2192 18.5367 15.4065C18.4297 15.5938 18.2757 15.7499 18.09 15.8594L11.6069 19.6361C11.422 19.7416 11.2127 19.7972 10.9997 19.7972C10.7868 19.7972 10.5775 19.7416 10.3925 19.6361L3.90987 15.8594C3.72401 15.7499 3.56995 15.5939 3.46293 15.4066C3.35592 15.2193 3.29967 15.0073 3.29974 14.7917V7.20826Z" fill="#000A40"/>
<path d="M5.86667 10.6333C5.96391 10.6333 6.05718 10.5946 6.12594 10.5259C6.1947 10.4571 6.23334 10.3639 6.23334 10.2666V7.92361L7.75244 10.4554C7.78502 10.5097 7.83109 10.5546 7.88615 10.5857C7.94121 10.6169 8.0034 10.6333 8.06667 10.6333C8.09975 10.6332 8.13267 10.6288 8.16457 10.6201C8.24186 10.5987 8.31 10.5525 8.35855 10.4887C8.40709 10.4248 8.43337 10.3468 8.43334 10.2666V6.59994C8.43334 6.5027 8.39471 6.40943 8.32595 6.34067C8.25718 6.27191 8.16392 6.23328 8.06667 6.23328C7.96943 6.23328 7.87616 6.27191 7.8074 6.34067C7.73864 6.40943 7.70001 6.5027 7.70001 6.59994V8.94294L6.1809 6.41111C6.1396 6.34242 6.07693 6.28916 6.00248 6.25947C5.92804 6.22979 5.84591 6.22531 5.76868 6.24673C5.69145 6.26815 5.62336 6.31428 5.57483 6.37807C5.52631 6.44186 5.50003 6.5198 5.5 6.59994V10.2666C5.5 10.3639 5.53863 10.4571 5.60739 10.5259C5.67616 10.5946 5.76942 10.6333 5.86667 10.6333Z" fill="#000A40"/>
<path d="M9.90085 10.6333C9.99809 10.6333 10.0914 10.5946 10.1601 10.5259C10.2289 10.4571 10.2675 10.3639 10.2675 10.2666V8.79994H11.0009C11.0981 8.79994 11.1914 8.76131 11.2601 8.69255C11.3289 8.62379 11.3675 8.53052 11.3675 8.43328C11.3675 8.33603 11.3289 8.24277 11.2601 8.174C11.1914 8.10524 11.0981 8.06661 11.0009 8.06661H10.2675V6.96661H12.1009C12.1981 6.96661 12.2914 6.92798 12.3601 6.85922C12.4289 6.79045 12.4675 6.69719 12.4675 6.59994C12.4675 6.5027 12.4289 6.40943 12.3601 6.34067C12.2914 6.27191 12.1981 6.23328 12.1009 6.23328H9.90085C9.8036 6.23328 9.71034 6.27191 9.64157 6.34067C9.57281 6.40943 9.53418 6.5027 9.53418 6.59994V10.2666C9.53418 10.3639 9.57281 10.4571 9.64157 10.5259C9.71034 10.5946 9.8036 10.6333 9.90085 10.6333Z" fill="#000A40"/>
<path d="M13.5669 6.96661H14.3002V10.2666C14.3002 10.3639 14.3388 10.4571 14.4076 10.5259C14.4764 10.5946 14.5696 10.6333 14.6669 10.6333C14.7641 10.6333 14.8574 10.5946 14.9261 10.5259C14.9949 10.4571 15.0335 10.3639 15.0335 10.2666V6.96661H15.7669C15.8641 6.96661 15.9574 6.92798 16.0261 6.85922C16.0949 6.79045 16.1335 6.69719 16.1335 6.59994C16.1335 6.5027 16.0949 6.40943 16.0261 6.34067C15.9574 6.27191 15.8641 6.23328 15.7669 6.23328H13.5669C13.4696 6.23328 13.3764 6.27191 13.3076 6.34067C13.2388 6.40943 13.2002 6.5027 13.2002 6.59994C13.2002 6.69719 13.2388 6.79045 13.3076 6.85922C13.3764 6.92798 13.4696 6.96661 13.5669 6.96661Z" fill="#000A40"/>
<path d="M8.80026 12.4667H12.4669C12.5642 12.4667 12.6574 12.4281 12.7262 12.3593C12.795 12.2906 12.8336 12.1973 12.8336 12.1001C12.8336 12.0028 12.795 11.9096 12.7262 11.8408C12.6574 11.772 12.5642 11.7334 12.4669 11.7334H8.80026C8.70301 11.7334 8.60975 11.772 8.54099 11.8408C8.47222 11.9096 8.43359 12.0028 8.43359 12.1001C8.43359 12.1973 8.47222 12.2906 8.54099 12.3593C8.60975 12.4281 8.70301 12.4667 8.80026 12.4667Z" fill="#000A40"/>
<path d="M12.1009 13.2H9.90085C9.8036 13.2 9.71034 13.2386 9.64157 13.3073C9.57281 13.3761 9.53418 13.4694 9.53418 13.5666C9.53418 13.6639 9.57281 13.7571 9.64157 13.8259C9.71034 13.8946 9.8036 13.9333 9.90085 13.9333H12.1009C12.1981 13.9333 12.2914 13.8946 12.3601 13.8259C12.4289 13.7571 12.4675 13.6639 12.4675 13.5666C12.4675 13.4694 12.4289 13.3761 12.3601 13.3073C12.2914 13.2386 12.1981 13.2 12.1009 13.2Z" fill="#000A40"/>
<path d="M13.5669 13.9333H16.8669C16.9641 13.9333 17.0574 13.8946 17.1261 13.8259C17.1949 13.7571 17.2335 13.6639 17.2335 13.5666C17.2335 13.4694 17.1949 13.3761 17.1261 13.3073C17.0574 13.2386 16.9641 13.2 16.8669 13.2H13.5669C13.4696 13.2 13.3764 13.2386 13.3076 13.3073C13.2388 13.3761 13.2002 13.4694 13.2002 13.5666C13.2002 13.6639 13.2388 13.7571 13.3076 13.8259C13.3764 13.8946 13.4696 13.9333 13.5669 13.9333Z" fill="#000A40"/>
<path d="M12.1009 16.1333H9.90085C9.8036 16.1333 9.71034 16.1719 9.64157 16.2407C9.57281 16.3095 9.53418 16.4027 9.53418 16.5C9.53418 16.5972 9.57281 16.6905 9.64157 16.7592C9.71034 16.828 9.8036 16.8666 9.90085 16.8666H12.1009C12.1981 16.8666 12.2914 16.828 12.3601 16.7592C12.4289 16.6905 12.4675 16.5972 12.4675 16.5C12.4675 16.4027 12.4289 16.3095 12.3601 16.2407C12.2914 16.1719 12.1981 16.1333 12.1009 16.1333Z" fill="#000A40"/>
<path d="M15.0335 16.1333H13.5669C13.4696 16.1333 13.3764 16.1719 13.3076 16.2407C13.2388 16.3095 13.2002 16.4027 13.2002 16.5C13.2002 16.5972 13.2388 16.6905 13.3076 16.7592C13.3764 16.828 13.4696 16.8666 13.5669 16.8666H15.0335C15.1308 16.8666 15.224 16.828 15.2928 16.7592C15.3616 16.6905 15.4002 16.5972 15.4002 16.5C15.4002 16.4027 15.3616 16.3095 15.2928 16.2407C15.224 16.1719 15.1308 16.1333 15.0335 16.1333Z" fill="#000A40"/>
<path d="M11.7337 15.3999C11.8309 15.3999 11.9242 15.3613 11.9929 15.2926C12.0617 15.2238 12.1003 15.1305 12.1003 15.0333C12.1003 14.936 12.0617 14.8428 11.9929 14.774C11.9242 14.7053 11.8309 14.6666 11.7337 14.6666H9.53366C9.43641 14.6666 9.34315 14.7053 9.27439 14.774C9.20562 14.8428 9.16699 14.936 9.16699 15.0333C9.16699 15.1305 9.20562 15.2238 9.27439 15.2926C9.34315 15.3613 9.43641 15.3999 9.53366 15.3999H11.7337Z" fill="#000A40"/>
<path d="M13.1997 15.3999H16.4997C16.5969 15.3999 16.6902 15.3613 16.7589 15.2926C16.8277 15.2238 16.8663 15.1305 16.8663 15.0333C16.8663 14.936 16.8277 14.8428 16.7589 14.774C16.6902 14.7053 16.5969 14.6666 16.4997 14.6666H13.1997C13.1024 14.6666 13.0092 14.7053 12.9404 14.774C12.8716 14.8428 12.833 14.936 12.833 15.0333C12.833 15.1305 12.8716 15.2238 12.9404 15.2926C13.0092 15.3613 13.1024 15.3999 13.1997 15.3999Z" fill="#000A40"/>
<path d="M7.33249 11.7334C7.23524 11.7334 7.14198 11.772 7.07321 11.8408C7.00445 11.9096 6.96582 12.0028 6.96582 12.1001V16.5001C6.96582 16.5973 7.00445 16.6906 7.07321 16.7593C7.14198 16.8281 7.23524 16.8667 7.33249 16.8667C7.42973 16.8667 7.523 16.8281 7.59176 16.7593C7.66052 16.6906 7.69915 16.5973 7.69915 16.5001V12.1001C7.69915 12.0028 7.66052 11.9096 7.59176 11.8408C7.523 11.772 7.42973 11.7334 7.33249 11.7334Z" fill="#000A40"/>
<path d="M5.13327 12.4667H5.8666C5.96385 12.4667 6.05711 12.4281 6.12588 12.3593C6.19464 12.2906 6.23327 12.1973 6.23327 12.1001C6.23327 12.0028 6.19464 11.9096 6.12588 11.8408C6.05711 11.772 5.96385 11.7334 5.8666 11.7334H5.13327C5.03602 11.7334 4.94276 11.772 4.874 11.8408C4.80523 11.9096 4.7666 12.0028 4.7666 12.1001C4.7666 12.1973 4.80523 12.2906 4.874 12.3593C4.94276 12.4281 5.03602 12.4667 5.13327 12.4667Z" fill="#000A40"/>
<path d="M5.13327 13.9333H5.8666C5.96385 13.9333 6.05711 13.8946 6.12588 13.8259C6.19464 13.7571 6.23327 13.6639 6.23327 13.5666C6.23327 13.4694 6.19464 13.3761 6.12588 13.3073C6.05711 13.2386 5.96385 13.2 5.8666 13.2H5.13327C5.03602 13.2 4.94276 13.2386 4.874 13.3073C4.80523 13.3761 4.7666 13.4694 4.7666 13.5666C4.7666 13.6639 4.80523 13.7571 4.874 13.8259C4.94276 13.8946 5.03602 13.9333 5.13327 13.9333Z" fill="#000A40"/>
<path d="M5.13327 15.3999H5.8666C5.96385 15.3999 6.05711 15.3613 6.12588 15.2926C6.19464 15.2238 6.23327 15.1305 6.23327 15.0333C6.23327 14.936 6.19464 14.8428 6.12588 14.774C6.05711 14.7053 5.96385 14.6666 5.8666 14.6666H5.13327C5.03602 14.6666 4.94276 14.7053 4.874 14.774C4.80523 14.8428 4.7666 14.936 4.7666 15.0333C4.7666 15.1305 4.80523 15.2238 4.874 15.2926C4.94276 15.3613 5.03602 15.3999 5.13327 15.3999Z" fill="#000A40"/>
</svg>
