<svg width="33" height="33" viewBox="0 0 33 33" fill="none" xmlns="http://www.w3.org/2000/svg">
<path d="M16.5 33C25.6127 33 33 25.6127 33 16.5C33 7.3873 25.6127 0 16.5 0C7.3873 0 0 7.3873 0 16.5C0 25.6127 7.3873 33 16.5 33Z" fill="white"/>
<path d="M7.55012 16.1425L23.4589 10.0086C24.1972 9.74185 24.8421 10.1887 24.6029 11.3052L24.6042 11.3039L21.8955 24.0652C21.6947 24.97 21.1571 25.19 20.405 24.7637L16.28 21.7236L14.2904 23.6404C14.0704 23.8604 13.8847 24.046 13.4585 24.046L13.7514 19.8481L21.3964 12.9415C21.7291 12.6486 21.3221 12.4836 20.8835 12.7751L11.4359 18.7234L7.36312 17.4529C6.47899 17.1724 6.45974 16.5687 7.55012 16.1425Z" fill="#039BE5"/>
</svg>
